<svg xmlns="http://www.w3.org/2000/svg" width="48" height="48" viewBox="0 0 48 48">
  <g id="Group_14844" data-name="Group 14844" transform="translate(-471 -720)">
    <g id="Group_14116" data-name="Group 14116" transform="translate(-534 -5)">
      <g id="Group_14115" data-name="Group 14115" transform="translate(1005 725)">
        <rect id="Rectangle_221" data-name="Rectangle 221" width="48" height="48" rx="10" fill="#b7d4e7" opacity="0.17"/>
      </g>
    </g>
    <g id="svgexport-17_67_" data-name="svgexport-17 (67)" transform="translate(482 731)">
      <g id="Documents_and_calculator" data-name="Documents and calculator" transform="translate(0 0)">
        <path id="Path_18515" data-name="Path 18515" d="M24.733,9.893H18.687V5.5h3.847a.55.55,0,0,0,.55-.55v-2.2A2.748,2.748,0,0,0,20.336,0H2.748A2.748,2.748,0,0,0,0,2.748V23.634a.55.55,0,0,0,.55.55H13.191v.55a1.649,1.649,0,0,0,1.649,1.649h9.893a1.649,1.649,0,0,0,1.649-1.649V11.542A1.649,1.649,0,0,0,24.733,9.893ZM21.985,2.748V4.4h-3.3V2.748a1.649,1.649,0,1,1,3.3,0ZM1.1,23.085V2.748A1.649,1.649,0,0,1,2.748,1.1h15.39c-.731.967-.55.962-.55,8.794H14.84a1.649,1.649,0,0,0-1.649,1.649V23.085Zm24.184,1.649a.55.55,0,0,1-.55.55H14.84a.55.55,0,0,1-.55-.55V11.542a.55.55,0,0,1,.55-.55h9.893a.55.55,0,0,1,.55.55Z" fill="#656667" stroke="#b7d4e7" stroke-width="0.2"/>
        <path id="Path_18516" data-name="Path 18516" d="M26.336,16.145H18.642a.55.55,0,0,0-.55.55v4.4a.55.55,0,0,0,.55.55h7.695a.55.55,0,0,0,.55-.55v-4.4A.55.55,0,0,0,26.336,16.145Zm-.55,4.4h-6.6v-3.3h6.6Zm-2.748,2.2h-1.1a.55.55,0,0,0,0,1.1h1.1a.55.55,0,0,0,0-1.1Zm-3.3,0h-1.1a.55.55,0,0,0,0,1.1h1.1a.55.55,0,1,0,0-1.1Zm6.6,0h-1.1a.55.55,0,1,0,0,1.1h1.1a.55.55,0,1,0,0-1.1Zm-3.3,2.2h-1.1a.55.55,0,0,0,0,1.1h1.1a.55.55,0,0,0,0-1.1Zm-3.3,0h-1.1a.55.55,0,0,0,0,1.1h1.1a.55.55,0,0,0,0-1.1Zm6.6,0h-1.1a.55.55,0,1,0,0,1.1h1.1a.55.55,0,1,0,0-1.1Zm-3.3,2.2h-1.1a.55.55,0,0,0,0,1.1h1.1a.55.55,0,0,0,0-1.1Zm-3.3,0h-1.1a.55.55,0,0,0,0,1.1h1.1a.55.55,0,0,0,0-1.1Zm6.6,0h-1.1a.55.55,0,0,0,0,1.1h1.1a.55.55,0,0,0,0-1.1ZM14.244,14.5H6.55a.55.55,0,1,0,0,1.1h7.695a.55.55,0,1,0,0-1.1Zm0,5.5H6.55a.55.55,0,0,0,0,1.1h7.695a.55.55,0,1,0,0-1.1ZM6.55,10.1H17.542a.55.55,0,0,0,0-1.1H6.55a.55.55,0,0,0,0,1.1Zm0,2.748H17.542a.55.55,0,0,0,0-1.1H6.55a.55.55,0,0,0,0,1.1Zm7.695,4.4H6.55a.55.55,0,0,0,0,1.1h7.695a.55.55,0,1,0,0-1.1Zm0,5.5H6.55a.55.55,0,0,0,0,1.1h7.695a.55.55,0,1,0,0-1.1Z" transform="translate(-2.702 -4.053)" fill="#656667" stroke="#b7d4e7" stroke-width="0.2"/>
      </g>
    </g>
  </g>
</svg>
