<svg xmlns="http://www.w3.org/2000/svg" width="14.032" height="18.582" viewBox="0 0 14.032 18.582">
  <g id="svgexport-17_68_" data-name="svgexport-17 (68)" transform="translate(-62.677)">
    <path id="Path_18542" data-name="Path 18542" d="M75.076,0H64.31a1.635,1.635,0,0,0-1.633,1.633V16.949a1.635,1.635,0,0,0,1.633,1.633H75.076a1.635,1.635,0,0,0,1.633-1.633V1.633A1.635,1.635,0,0,0,75.076,0ZM64.894,3.206a.437.437,0,0,1,.436-.436H74.2a.437.437,0,0,1,.436.436v1.66A.437.437,0,0,1,74.2,5.3H65.33a.437.437,0,0,1-.436-.436ZM70.2,9.16H69.184a.544.544,0,0,1-.544-.544v-.74a.544.544,0,0,1,.544-.544H70.2a.544.544,0,0,1,.544.544v.74A.544.544,0,0,1,70.2,9.16Zm.544,2.223v.74a.544.544,0,0,1-.544.544H69.184a.544.544,0,0,1-.544-.544v-.74a.544.544,0,0,1,.544-.544H70.2A.544.544,0,0,1,70.747,11.383Zm-3.891,4.246a.544.544,0,0,1-.544.544H65.293a.544.544,0,0,1-.544-.544v-.74a.544.544,0,0,1,.544-.544h1.018a.544.544,0,0,1,.544.544Zm0-3.507a.544.544,0,0,1-.544.544H65.293a.544.544,0,0,1-.544-.544v-.74a.544.544,0,0,1,.544-.544h1.018a.544.544,0,0,1,.544.544Zm0-3.507a.544.544,0,0,1-.544.544H65.293a.544.544,0,0,1-.544-.544v-.74a.544.544,0,0,1,.544-.544h1.018a.544.544,0,0,1,.544.544Zm7.783,7.013a.544.544,0,0,1-.544.544H69.184a.544.544,0,0,1-.544-.544v-.74a.544.544,0,0,1,.544-.544h4.909a.544.544,0,0,1,.544.544Zm0-3.507a.544.544,0,0,1-.544.544H73.075a.544.544,0,0,1-.544-.544v-.74a.544.544,0,0,1,.544-.544h1.018a.544.544,0,0,1,.544.544Zm0-3.507a.544.544,0,0,1-.544.544H73.075a.544.544,0,0,1-.544-.544v-.74a.544.544,0,0,1,.544-.544h1.018a.544.544,0,0,1,.544.544Z" transform="translate(0 0)" fill="#c1c8d8"/>
  </g>
</svg>
