<svg id="Vehicle_Sale-pana" data-name="Vehicle Sale-pana" xmlns="http://www.w3.org/2000/svg" xmlns:xlink="http://www.w3.org/1999/xlink" width="178.916" height="91.721" viewBox="0 0 178.916 91.721">
  <defs>
    <linearGradient id="linear-gradient" x1="0.549" x2="0.5" y2="1" gradientUnits="objectBoundingBox">
      <stop offset="0" stop-color="#ff5929"/>
      <stop offset="1" stop-color="#f4552c"/>
    </linearGradient>
    <linearGradient id="linear-gradient-2" x1="0.5" x2="0.5" y2="1" gradientUnits="objectBoundingBox">
      <stop offset="0" stop-color="#3275b9"/>
      <stop offset="1" stop-color="#48acbc"/>
      <stop offset="1" stop-color="#fe5a2a"/>
    </linearGradient>
  </defs>
  <g id="freepik--background-complete--inject-57" transform="translate(0 0)">
    <path id="Path_13320" data-name="Path 13320" d="M33.719,123.094c-6.439-3.24-8.864-10.634-9.618-17.482a7.488,7.488,0,0,1-.025-3.4,2.339,2.339,0,0,1,2.649-1.609c.9.274,1.412,1.2,2.011,1.95a6.721,6.721,0,0,0,3.036,2.161,2.563,2.563,0,0,0,2.368-.126c.907-.674.817-2.056.656-3.187l-.955-6.323a10.6,10.6,0,0,1-.143-3.411,3.547,3.547,0,0,1,1.862-2.692A2.151,2.151,0,0,1,38.4,90.02a10.851,10.851,0,0,1,.236,1.4,1.206,1.206,0,0,0,.857,1.02c.465.068.877-.319,1.169-.7a15.128,15.128,0,0,0,2.111-4.471A20.981,20.981,0,0,1,44.687,82.7a6.124,6.124,0,0,1,3.8-2.918,3.716,3.716,0,0,1,4.119,1.955c.641,1.531-.055,3.29-.882,4.728A25.6,25.6,0,0,1,47.2,92.249a2.164,2.164,0,0,0-.754,1.073c-.138.789.686,1.435,1.468,1.576a13.173,13.173,0,0,0,2.684-.085,2.586,2.586,0,0,1,2.365,1.005c.631,1.088-.163,2.44-1.005,3.373a21.849,21.849,0,0,1-5.871,4.624,7.227,7.227,0,0,0-2.212,1.508,2.12,2.12,0,0,0-.324,2.5,2.158,2.158,0,0,0,2.448.555,15.266,15.266,0,0,0,2.347-1.307c1.47-.812,3.493-1.005,4.685.206a3.623,3.623,0,0,1,.839,3.111,8.375,8.375,0,0,1-1.312,3.046,21.982,21.982,0,0,1-8.349,7.872c-3.428,1.772-6.721,2.6-10.5,1.8" transform="translate(124.565 -77.839)" fill="#ecebeb"/>
    <path id="Path_13321" data-name="Path 13321" d="M36.56,120.7a102.188,102.188,0,0,1,2.448-11.5q.4-1.508.8-2.983c.251-.978.523-1.948.839-2.88a50.465,50.465,0,0,1,2.111-5.258c.754-1.639,1.528-3.167,2.262-4.592s1.45-2.734,2.151-3.906a40.655,40.655,0,0,1,3.712-5.265c.488-.586.877-1.025,1.146-1.322l.3-.322a.724.724,0,0,1,.111-.108,1.155,1.155,0,0,1-.093.123l-.294.347c-.251.3-.638.754-1.116,1.347A43.005,43.005,0,0,0,47.3,89.665c-.691,1.171-1.395,2.486-2.124,3.911s-1.508,2.956-2.242,4.592a52.243,52.243,0,0,0-2.094,5.243c-.327.927-.578,1.887-.829,2.87s-.528,1.973-.794,2.978a104.8,104.8,0,0,0-2.473,11.476" transform="translate(122.865 -79.978)" fill="#b6b8bb"/>
    <path id="Path_13322" data-name="Path 13322" d="M86.718,128.772a2.123,2.123,0,0,1-.186-.465c-.106-.3-.251-.754-.4-1.3-.324-1.1-.716-2.644-1.146-4.343s-.842-3.23-1.181-4.325c-.168-.548-.307-.99-.41-1.294a2.447,2.447,0,0,1-.133-.483,2.345,2.345,0,0,1,.211.452c.126.3.287.734.472,1.279.377,1.088.817,2.616,1.257,4.318s.789,3.2,1.081,4.366l.337,1.317A2.583,2.583,0,0,1,86.718,128.772Z" transform="translate(76.849 -105.425)" fill="#b6b8bb"/>
    <path id="Path_13323" data-name="Path 13323" d="M41.087,146a3.143,3.143,0,0,1-.571.153c-.367.088-.9.211-1.556.385-1.312.337-3.109.865-5.064,1.536s-3.7,1.357-4.946,1.887c-.626.251-1.126.488-1.473.641a3.175,3.175,0,0,1-.548.221,3.119,3.119,0,0,1,.5-.3c.337-.176.827-.422,1.448-.7,1.234-.568,2.976-1.277,4.939-1.953a51.6,51.6,0,0,1,5.094-1.478c.664-.156,1.2-.251,1.578-.319A3.1,3.1,0,0,1,41.087,146Z" transform="translate(136.637 -127.466)" fill="#b6b8bb"/>
    <path id="Path_13324" data-name="Path 13324" d="M109.2,180.92a.726.726,0,0,1-.126-.163l-.324-.5c-.281-.427-.671-1.056-1.141-1.84-.945-1.566-2.179-3.77-3.519-6.218s-2.541-4.665-3.451-6.245c-.445-.769-.809-1.4-1.083-1.872-.116-.206-.211-.374-.292-.5a.672.672,0,0,1-.088-.186.969.969,0,0,1,.126.163l.334.493c.281.427.669,1.056,1.141,1.84.942,1.566,2.177,3.77,3.519,6.22s2.531,4.662,3.441,6.246l1.081,1.87.292.5A.8.8,0,0,1,109.2,180.92Z" transform="translate(50.363 -140.485)" fill="#b6b8bb"/>
    <path id="Path_13325" data-name="Path 13325" d="M44.273,197.22a.792.792,0,0,1-.181.106l-.533.271-1.975.97c-1.666.819-3.953,1.978-6.482,3.267s-4.828,2.423-6.512,3.207c-.842.392-1.526.7-2.011.91l-.55.234a.961.961,0,0,1-.2.068.675.675,0,0,1,.181-.108l.533-.269,1.973-.97c1.666-.819,3.956-1.978,6.484-3.267s4.836-2.423,6.519-3.217c.842-.395,1.526-.706,2.011-.91l.55-.234A.8.8,0,0,1,44.273,197.22Z" transform="translate(133.728 -165.813)" fill="#b6b8bb"/>
    <path id="Path_13326" data-name="Path 13326" d="M621.05,333.3a8.566,8.566,0,0,1,3.667-1.257,2.452,2.452,0,0,1,1.734.319.362.362,0,0,1,.178.317.382.382,0,0,1-.171.216,5.244,5.244,0,0,1-5.408.412" transform="translate(-598.116 -266.729)" fill="#e0e0e0"/>
    <path id="Path_13327" data-name="Path 13327" d="M627.346,319.578a17.781,17.781,0,0,0,2.367-2.084,5.985,5.985,0,0,0,1.483-2.744,1.111,1.111,0,0,0-.116-.92,9.213,9.213,0,0,0-3.735,5.748" transform="translate(-604.316 -253.115)" fill="#e0e0e0"/>
    <path id="Path_13328" data-name="Path 13328" d="M644.58,320.155a8.545,8.545,0,0,0-.045-3.109,4.21,4.21,0,0,0-1.654-2.566,3.676,3.676,0,0,0,.043,2.438,11.837,11.837,0,0,0,1.641,3.456" transform="translate(-621.627 -253.602)" fill="#e0e0e0"/>
    <path id="Path_13329" data-name="Path 13329" d="M632.14,350.25a5.4,5.4,0,0,1,2.938,1.488,5.568,5.568,0,0,1,1.684,2.888,3.964,3.964,0,0,1-2.714-1.717c-.676-.87-1.149-1.827-1.893-2.642" transform="translate(-611.036 -280.382)" fill="#e0e0e0"/>
    <path id="Path_13330" data-name="Path 13330" d="M651.306,331.929a7.253,7.253,0,0,0-.837-6.859,8.731,8.731,0,0,0,.837,6.859" transform="translate(-630.604 -261.53)" fill="#e0e0e0"/>
    <path id="Path_13331" data-name="Path 13331" d="M641.585,363.908a5.245,5.245,0,0,1,5.027,2.885.39.39,0,0,1,.033.395.374.374,0,0,1-.332.1,4.36,4.36,0,0,1-2.586-1.337,24.26,24.26,0,0,0-2.151-2.043" transform="translate(-623.329 -290.599)" fill="#e0e0e0"/>
    <path id="Path_13332" data-name="Path 13332" d="M661.439,342.622a9.341,9.341,0,0,0,.093-5.215,2.578,2.578,0,0,0-1.113-1.694.213.213,0,0,0-.168-.03.223.223,0,0,0-.108.126,3.138,3.138,0,0,0-.251,1.5,9.375,9.375,0,0,0,.236,1.508,8.027,8.027,0,0,0,.807,2.719,5.249,5.249,0,0,1,.322.6c.1.2.1.274.186.435" transform="translate(-643.105 -269.471)" fill="#e0e0e0"/>
    <path id="Path_13333" data-name="Path 13333" d="M688.35,350.033a6.713,6.713,0,0,0-1.179-5.529c-.083-.111-.2-.229-.334-.216-.211.02-.266.3-.251.5a9.993,9.993,0,0,0,1.759,5.233" transform="translate(-676.487 -275.917)" fill="#e0e0e0"/>
    <path id="Path_13334" data-name="Path 13334" d="M696.22,363.039a8.043,8.043,0,0,1-6.6-1.342,5.343,5.343,0,0,1,3.574-.437,5.029,5.029,0,0,1,3.016,1.779" transform="translate(-684.941 -288.527)" fill="#e0e0e0"/>
    <path id="Path_13335" data-name="Path 13335" d="M697.569,353.583a7.657,7.657,0,0,0-5.989-3.463,3.689,3.689,0,0,0,1.96,2.166,10.879,10.879,0,0,0,2.875.842,2.016,2.016,0,0,1,1.154.455" transform="translate(-686.782 -280.285)" fill="#e0e0e0"/>
    <path id="Path_13336" data-name="Path 13336" d="M685.153,319.639a17.574,17.574,0,0,1-.767-3.519,5.876,5.876,0,0,1,.7-3.471,7.637,7.637,0,0,1,.1,7.1" transform="translate(-673.413 -252.232)" fill="#e0e0e0"/>
    <path id="Path_13337" data-name="Path 13337" d="M710.232,318.587a9.408,9.408,0,0,0-6.922-4.707,7.69,7.69,0,0,0,6.922,4.707" transform="translate(-702.393 -253.153)" fill="#e0e0e0"/>
    <path id="Path_13338" data-name="Path 13338" d="M707.791,333.365c-2.01.309-3.745,1.6-5.632,2.383a2.563,2.563,0,0,1-1.274.251,1.005,1.005,0,0,1-.623-1.759,2.7,2.7,0,0,1,.925-.561,10.293,10.293,0,0,1,6.432-.359" transform="translate(-699.1 -267.448)" fill="#e0e0e0"/>
    <path id="Path_13339" data-name="Path 13339" d="M701.005,339.861a2.378,2.378,0,0,0-.975.679,10.557,10.557,0,0,1-4.273,2.194c-.163.04-.377.055-.457-.09s.018-.287.111-.4a5.875,5.875,0,0,1,2.579-1.759,6.572,6.572,0,0,1,3.016-.714" transform="translate(-691.146 -272.527)" fill="#e0e0e0"/>
    <path id="Path_13340" data-name="Path 13340" d="M696.54,305.448a8.08,8.08,0,0,1-6.2,2.109.43.43,0,0,1-.284-.1c-.156-.171.033-.432.214-.573a7.131,7.131,0,0,1,6.268-1.435" transform="translate(-685.356 -246.677)" fill="#e0e0e0"/>
    <path id="Path_13341" data-name="Path 13341" d="M703.961,298.814a8.641,8.641,0,0,0-7.731-1.277,6.13,6.13,0,0,0,3.685,1.619,11.71,11.71,0,0,0,4.049-.342" transform="translate(-694.345 -240.615)" fill="#e0e0e0"/>
    <path id="Path_13342" data-name="Path 13342" d="M689.615,271.871c.181-1.817.063-3.252.191-5.082,0-.146.04-.322.176-.372.191-.075.349.158.412.354a5.818,5.818,0,0,1-.777,5.059" transform="translate(-679.378 -217.608)" fill="#e0e0e0"/>
    <path id="Path_13343" data-name="Path 13343" d="M697.251,271.975a10.67,10.67,0,0,1-3.016-2.928,4,4,0,0,1-.963-2.787,2.875,2.875,0,0,1,2.174,1.078,6.069,6.069,0,0,1,1.108,2.229c.251.8.41,1.621.691,2.408" transform="translate(-686.884 -217.501)" fill="#e0e0e0"/>
    <path id="Path_13344" data-name="Path 13344" d="M712.264,272.124a24.272,24.272,0,0,1-7.414-4.371,3.787,3.787,0,0,1,2.785.214A8.78,8.78,0,0,1,712.3,272.1" transform="translate(-704.85 -218.482)" fill="#e0e0e0"/>
    <path id="Path_13345" data-name="Path 13345" d="M704.747,286.533a14.865,14.865,0,0,1-4.117.02,17.694,17.694,0,0,1-3.843-1.277.448.448,0,0,1-.251-.2.3.3,0,0,1,.093-.329.81.81,0,0,1,.329-.153,7.091,7.091,0,0,1,4.152.251,19.354,19.354,0,0,1,3.647,1.689" transform="translate(-695.212 -231.073)" fill="#e0e0e0"/>
    <path id="Path_13346" data-name="Path 13346" d="M663.243,288.382a7.3,7.3,0,0,0,.065-6.032,4.6,4.6,0,0,0-.533,3c.1,1.03.417,2.089.437,3.124" transform="translate(-645.891 -229.547)" fill="#e0e0e0"/>
    <path id="Path_13347" data-name="Path 13347" d="M625.856,298.858a8.41,8.41,0,0,1,6.248,2.662,5.843,5.843,0,0,1-3.421-.633,17.571,17.571,0,0,1-2.923-1.963" transform="translate(-604.774 -241.906)" fill="#e0e0e0"/>
    <path id="Path_13348" data-name="Path 13348" d="M617.26,295.2a8.742,8.742,0,0,1,3.335.1,4,4,0,0,1,2.541,2.156,6.057,6.057,0,0,1-3.127-.591,18.044,18.044,0,0,1-2.75-1.669" transform="translate(-593.67 -239.082)" fill="#e0e0e0"/>
    <path id="Path_13349" data-name="Path 13349" d="M628.968,290.461a10.525,10.525,0,0,1,3.267-1.636,3.573,3.573,0,0,1,3.413.827,6.365,6.365,0,0,1-3.267.633,11.185,11.185,0,0,0-3.551.362" transform="translate(-609.091 -234.308)" fill="#e0e0e0"/>
    <path id="Path_13350" data-name="Path 13350" d="M647.578,274.53a7.6,7.6,0,0,0,1.714-7.171,10.928,10.928,0,0,0-1.714,7.171" transform="translate(-627.708 -218.325)" fill="#e0e0e0"/>
    <path id="Path_13351" data-name="Path 13351" d="M678.89,259.61c-.332-.769-.563-1.576-.859-2.357a6.786,6.786,0,0,0-1.227-2.177,3.244,3.244,0,0,0-2.174-1.126,8.749,8.749,0,0,0,4.217,5.673" transform="translate(-663.843 -208.285)" fill="#e0e0e0"/>
    <path id="Path_13352" data-name="Path 13352" d="M653.1,271.31a11.338,11.338,0,0,1,1.923-2.34,3.214,3.214,0,0,1,2.616-.686A6.09,6.09,0,0,1,653.1,271.3" transform="translate(-637.181 -218.967)" fill="#e0e0e0"/>
    <path id="Path_13353" data-name="Path 13353" d="M668.622,259.882a12.957,12.957,0,0,0,.865-2.8,4.373,4.373,0,0,0-.437-2.85,6.463,6.463,0,0,0-.478,5.675" transform="translate(-652.876 -208.495)" fill="#e0e0e0"/>
    <path id="Path_13354" data-name="Path 13354" d="M679.833,242.756a6.118,6.118,0,0,0-3.981-3.742,1.479,1.479,0,0,0-.7-.1.6.6,0,0,0-.515.43c-.065.307.188.581.427.784a13.484,13.484,0,0,0,4.775,2.631" transform="translate(-664.796 -197.021)" fill="#e0e0e0"/>
    <path id="Path_13355" data-name="Path 13355" d="M677.336,230.295a13.021,13.021,0,0,0-.52-3.446,4.351,4.351,0,0,0-2.169-2.619,5.1,5.1,0,0,0,.963,3.355,15.547,15.547,0,0,1,1.759,3.094" transform="translate(-662.316 -186.034)" fill="#e0e0e0"/>
    <path id="Path_13356" data-name="Path 13356" d="M661.179,232.706c.45-1.314.5-2.986,1.284-4.132.55-.8,1.433-1.345,1.908-2.194a3.331,3.331,0,0,1-.113,2.491,7.171,7.171,0,0,1-1.455,2.086c-.583.623-1.083,1.091-1.624,1.759" transform="translate(-646.132 -187.644)" fill="#e0e0e0"/>
    <path id="Path_13357" data-name="Path 13357" d="M674.457,288.875c.035,0,.065-8.771.068-19.591s-.023-19.6-.058-19.6-.065,8.769-.068,19.6S674.425,288.875,674.457,288.875Z" transform="translate(-659.42 -205.088)" fill="#e0e0e0"/>
    <path id="Path_13358" data-name="Path 13358" d="M674.608,301.08a1.887,1.887,0,0,0,.329.123l.91.307c.754.251,1.815.638,2.958,1.106a11.094,11.094,0,0,1,2.8,1.4,2.087,2.087,0,0,1,.565.754c.085.206.1.332.113.329s0-.03,0-.09a1.455,1.455,0,0,0-.063-.251,2.011,2.011,0,0,0-.55-.794,4.9,4.9,0,0,0-1.216-.754c-.485-.229-1.025-.465-1.6-.7-1.146-.47-2.2-.834-2.978-1.076-.387-.121-.7-.209-.922-.266A2.008,2.008,0,0,0,674.608,301.08Z" transform="translate(-667.237 -243.57)" fill="#e0e0e0"/>
    <path id="Path_13359" data-name="Path 13359" d="M677.03,276.52a1.369,1.369,0,0,0,.093.1c.063.063.168.156.282.264l1.05.955,3.5,3.114c1.365,1.214,2.546,2.375,3.363,3.25.41.437.731.8.953,1.051l.251.292c.058.065.09.1.1.1a.674.674,0,0,0-.075-.113c-.053-.07-.131-.173-.236-.3-.209-.251-.523-.636-.925-1.081a44.4,44.4,0,0,0-3.343-3.285c-1.37-1.211-2.619-2.3-3.519-3.086l-1.078-.925-.3-.251A.5.5,0,0,0,677.03,276.52Z" transform="translate(-672.172 -225.182)" fill="#e0e0e0"/>
    <path id="Path_13360" data-name="Path 13360" d="M690.7,290.019c.038-.015-.251-.674-.533-1.508s-.422-1.536-.457-1.531a5.187,5.187,0,0,0,.337,1.571,10.47,10.47,0,0,0,.425,1.053A1.672,1.672,0,0,0,690.7,290.019Z" transform="translate(-679.443 -233.013)" fill="#e0e0e0"/>
    <path id="Path_13361" data-name="Path 13361" d="M654.47,301.094a1.545,1.545,0,0,0,.211-.251l.538-.691c.455-.586,1.081-1.392,1.782-2.277s1.347-1.676,1.812-2.262l.553-.681a1.424,1.424,0,0,0,.189-.251,1.8,1.8,0,0,0-.226.229c-.141.153-.339.377-.583.656-.485.56-1.141,1.345-1.845,2.229s-1.317,1.7-1.759,2.3c-.219.3-.392.545-.5.716A1.613,1.613,0,0,0,654.47,301.094Z" transform="translate(-639.441 -238.778)" fill="#e0e0e0"/>
    <path id="Path_13362" data-name="Path 13362" d="M664.536,303.7a3.064,3.064,0,0,0,.7-1.317,3.8,3.8,0,0,0,.161-1.329h-.058c.025.1.045.156.055.153s0-.058,0-.163h-.058a6.047,6.047,0,0,1-.224,1.294,9.447,9.447,0,0,1-.581,1.362Z" transform="translate(-647.823 -243.54)" fill="#e0e0e0"/>
    <path id="Path_13363" data-name="Path 13363" d="M644.23,299.152a2.325,2.325,0,0,1,.5-.284,3.283,3.283,0,0,1,1.365-.111,8.406,8.406,0,0,1,1.375.224,4.355,4.355,0,0,0,.566.136,1.991,1.991,0,0,0-.54-.224,6.319,6.319,0,0,0-1.39-.251,2.953,2.953,0,0,0-1.407.153A.886.886,0,0,0,644.23,299.152Z" transform="translate(-625.35 -241.725)" fill="#e0e0e0"/>
    <path id="Path_13364" data-name="Path 13364" d="M636.1,295.719c0,.02.287-.116.754-.274a7.684,7.684,0,0,1,1.88-.387,7.79,7.79,0,0,1,1.915.1c.485.085.779.178.787.156a.757.757,0,0,0-.2-.085,4.931,4.931,0,0,0-.568-.158,6.718,6.718,0,0,0-3.843.292,4.717,4.717,0,0,0-.538.251A.77.77,0,0,0,636.1,295.719Z" transform="translate(-616.705 -238.953)" fill="#e0e0e0"/>
    <path id="Path_13365" data-name="Path 13365" d="M670.75,275.538a16.142,16.142,0,0,0,.55-1.908,15.161,15.161,0,0,0,.425-1.94,16.08,16.08,0,0,0-.548,1.908A15.078,15.078,0,0,0,670.75,275.538Z" transform="translate(-655.703 -221.566)" fill="#e0e0e0"/>
    <path id="Path_13366" data-name="Path 13366" d="M668.78,280.839a9.38,9.38,0,0,1,.608-1.144,4.851,4.851,0,0,1,.9-.922.845.845,0,0,0-.347.176,2.767,2.767,0,0,0-.654.676A2.513,2.513,0,0,0,668.78,280.839Z" transform="translate(-653.768 -226.867)" fill="#e0e0e0"/>
    <path id="Path_13367" data-name="Path 13367" d="M642.69,348.855c.015,0,.04-.211.138-.583a8.345,8.345,0,0,1,.588-1.508,21.1,21.1,0,0,1,3.109-4.381c.7-.794,1.37-1.543,1.94-2.262a15.766,15.766,0,0,0,1.387-2.011,9.676,9.676,0,0,0,.7-1.483c.063-.183.111-.327.136-.425a1.006,1.006,0,0,0,.038-.153s-.075.2-.221.56a10.671,10.671,0,0,1-.731,1.455,16.5,16.5,0,0,1-1.4,1.973c-.575.709-1.257,1.455-1.945,2.249a19.561,19.561,0,0,0-3.094,4.426,7.719,7.719,0,0,0-.555,1.546,3.738,3.738,0,0,0-.075.44A.814.814,0,0,0,642.69,348.855Z" transform="translate(-627.653 -269.751)" fill="#e0e0e0"/>
    <path id="Path_13368" data-name="Path 13368" d="M674.72,355.9a4.053,4.053,0,0,0,.364.2,8.031,8.031,0,0,1,.94.621,10.923,10.923,0,0,1,1.237,1.128c.435.46.882.99,1.34,1.563.912,1.143,1.759,2.156,2.262,2.966.251.4.45.739.573.975a4.082,4.082,0,0,0,.2.367.259.259,0,0,0-.033-.1c-.033-.065-.063-.163-.121-.284a9.181,9.181,0,0,0-.54-1.005,32.83,32.83,0,0,0-2.262-3c-.457-.57-.91-1.106-1.352-1.563a9.98,9.98,0,0,0-1.257-1.118,6.65,6.65,0,0,0-.973-.6c-.121-.06-.219-.1-.284-.126S674.722,355.89,674.72,355.9Z" transform="translate(-666.61 -284.607)" fill="#e0e0e0"/>
    <path id="Path_13369" data-name="Path 13369" d="M683.72,365.972a5.706,5.706,0,0,0,.769.111,10.071,10.071,0,0,1,1.82.359,5.459,5.459,0,0,1,1.629.855c.377.289.553.53.57.515a.581.581,0,0,0-.113-.176,2.912,2.912,0,0,0-.4-.41,4.942,4.942,0,0,0-1.649-.9,8.31,8.31,0,0,0-1.85-.329A4.2,4.2,0,0,0,683.72,365.972Z" transform="translate(-675.746 -292.146)" fill="#e0e0e0"/>
    <path id="Path_13370" data-name="Path 13370" d="M685.545,364.484c.04-.023-.307-.55-.576-1.257s-.309-1.345-.354-1.337a1.2,1.2,0,0,0,0,.412,4.432,4.432,0,0,0,.224.97,4.694,4.694,0,0,0,.445.89C685.432,364.37,685.53,364.494,685.545,364.484Z" transform="translate(-673.006 -289.096)" fill="#e0e0e0"/>
    <path id="Path_13371" data-name="Path 13371" d="M674.72,328.78a.446.446,0,0,0,.121.065l.362.163c.158.068.349.156.565.269s.47.226.734.385l.417.239c.146.083.289.181.442.279.309.186.618.417.947.651a16.333,16.333,0,0,1,3.649,3.77c.226.339.445.656.621.97.09.156.186.3.251.45s.151.292.224.427c.148.269.251.525.359.754s.186.415.251.576.111.269.151.364a.762.762,0,0,0,.06.126.463.463,0,0,0-.035-.133l-.131-.377c-.055-.163-.128-.359-.229-.583s-.2-.485-.344-.754l-.219-.432c-.075-.151-.168-.3-.251-.457-.173-.319-.392-.641-.613-.983a15.8,15.8,0,0,0-3.677-3.805c-.334-.234-.649-.462-.963-.648-.153-.093-.3-.191-.448-.274l-.425-.231c-.269-.153-.525-.264-.754-.372s-.415-.186-.576-.251l-.372-.141A.689.689,0,0,0,674.72,328.78Z" transform="translate(-668.852 -264.308)" fill="#e0e0e0"/>
    <path id="Path_13372" data-name="Path 13372" d="M692.617,340.675a.89.89,0,0,0-.3-.45,1.9,1.9,0,0,0-1.214-.465,3.3,3.3,0,0,0-1.279.251,1.857,1.857,0,0,0-.483.234,2.9,2.9,0,0,0,.5-.148,3.876,3.876,0,0,1,1.257-.209,1.981,1.981,0,0,1,1.161.407A3.614,3.614,0,0,1,692.617,340.675Z" transform="translate(-681.268 -272.528)" fill="#e0e0e0"/>
    <path id="Path_13373" data-name="Path 13373" d="M686.567,339.932a4.619,4.619,0,0,1-.344-1.121,4.542,4.542,0,0,1,.078-1.171.773.773,0,0,0-.143.327,2.258,2.258,0,0,0-.06.86,2.3,2.3,0,0,0,.251.822C686.459,339.842,686.554,339.942,686.567,339.932Z" transform="translate(-674.398 -270.941)" fill="#e0e0e0"/>
    <path id="Path_13374" data-name="Path 13374" d="M662.659,392a28.8,28.8,0,0,1-2.765,10.209h-6.746A29.312,29.312,0,0,1,650.56,392Z" transform="translate(-641.563 -311.639)" fill="#e0e0e0"/>
    <path id="Path_13375" data-name="Path 13375" d="M654.8,413.423c0,.035,2.224.065,4.966.065s4.971-.03,4.971-.065-2.224-.063-4.971-.063S654.8,413.388,654.8,413.423Z" transform="translate(-644.707 -327.631)" fill="#fafafa"/>
    <path id="Path_13376" data-name="Path 13376" d="M656.68,418.255c0,.035,2.083.063,4.657.063s4.657-.028,4.657-.063-2.083-.065-4.657-.065S656.68,418.22,656.68,418.255Z" transform="translate(-646.436 -331.247)" fill="#fafafa"/>
    <path id="Path_13377" data-name="Path 13377" d="M661.8,400.79a19.313,19.313,0,0,0,0,3.111A18.519,18.519,0,0,0,661.8,400.79Z" transform="translate(-643.582 -318.22)" fill="#fafafa"/>
    <path id="Path_13378" data-name="Path 13378" d="M676.163,400.79a20.693,20.693,0,0,0,0,3.222A20.663,20.663,0,0,0,676.163,400.79Z" transform="translate(-661.548 -318.22)" fill="#fafafa"/>
    <path id="Path_13379" data-name="Path 13379" d="M689.683,400.68a21.54,21.54,0,0,0,0,3.287,20.7,20.7,0,0,0,0-3.287Z" transform="translate(-678.469 -318.137)" fill="#fafafa"/>
    <path id="Path_13380" data-name="Path 13380" d="M651.47,400.6c0,.035,2.609.063,5.828.063s5.828-.028,5.828-.063-2.609-.065-5.828-.065S651.47,400.56,651.47,400.6Z" transform="translate(-642.259 -318.025)" fill="#fafafa"/>
    <g id="Group_11573" data-name="Group 11573" transform="translate(128.545)">
      <path id="Path_13381" data-name="Path 13381" d="M552.886,83.637h-.558l-1.214-1.691V80.829s-.859-.053-.754,1.4,0,1.086,0,1.086a8.6,8.6,0,0,0-1.978.166,18.722,18.722,0,0,0-.181,2.913,1.066,1.066,0,0,0,.754,1.073.872.872,0,0,0,.2.025c.455,0,2.782-.369,2.782-.369h.963Z" transform="translate(-543.38 -76.893)" fill="#e0e0e0"/>
      <path id="Path_13382" data-name="Path 13382" d="M543.2,90.77l-.342,3.805h-.952v-3.73Z" transform="translate(-532.11 -84.336)" fill="#e0e0e0"/>
      <path id="Path_13383" data-name="Path 13383" d="M530.706,65.173a.915.915,0,0,0-.136,0h-.7l-.352.05-.415.06-.46.113a7.526,7.526,0,0,0-2.237.975,7.989,7.989,0,0,0-2.315,2.262,8.1,8.1,0,0,0-1.325,3.695,8.643,8.643,0,0,0,0,1.093,2.737,2.737,0,0,0,.038.553l.083.558a7.911,7.911,0,0,0,.754,2.2,8.479,8.479,0,0,0,1.438,1.978,8.343,8.343,0,0,0,2.071,1.488,7.521,7.521,0,0,0,2.513.762,4.626,4.626,0,0,0,.674.058,6.114,6.114,0,0,0,.679.013,8.1,8.1,0,0,0,1.365-.171,7.96,7.96,0,0,0,2.714-1.144h-.083l2.765,1.111.166.065-.048-.171c-.279-1.005-.55-2.011-.812-2.956l-.015.073a7.894,7.894,0,0,0,1.475-3.378,7.208,7.208,0,0,0,.108-1.729,5.682,5.682,0,0,0-.078-.832c-.023-.136-.043-.269-.063-.4s-.065-.251-.1-.39a7.905,7.905,0,0,0-3.079-4.491,7.492,7.492,0,0,0-1.837-.968l-.412-.148-.392-.1-.359-.088c-.116-.023-.226-.035-.332-.05-.209-.028-.392-.063-.553-.07l-.407-.015h-.334a.31.31,0,0,0,.083,0l.251.02.4.028a4.532,4.532,0,0,1,.55.083,7.861,7.861,0,0,1,6.283,5.831c.03.128.07.251.093.387l.06.4a5.394,5.394,0,0,1,.073.814,7.068,7.068,0,0,1-.113,1.7,7.751,7.751,0,0,1-1.455,3.3l-.025.033v.04c.251.955.53,1.943.807,2.958l.116-.106-2.765-1.111-.045-.018-.038.025a7.792,7.792,0,0,1-2.654,1.116,7.982,7.982,0,0,1-1.332.168,5.877,5.877,0,0,1-.666,0,4.772,4.772,0,0,1-.658-.055,7.414,7.414,0,0,1-2.471-.754,8.209,8.209,0,0,1-2.028-1.453,8.4,8.4,0,0,1-1.412-1.933,7.825,7.825,0,0,1-.754-2.154c-.03-.183-.058-.367-.085-.545s-.023-.364-.038-.543a7.9,7.9,0,0,1,.018-1.063,7.811,7.811,0,0,1,3.531-5.861,7.541,7.541,0,0,1,2.2-.993l.48-.111.41-.068.349-.058c.108,0,.206-.015.294-.023l.39-.04A.521.521,0,0,0,530.706,65.173Z" transform="translate(-522.752 -65.17)" fill="#e0e0e0"/>
    </g>
  </g>
  <g id="freepik--Floor--inject-57" transform="translate(7.53 90.469)">
    <path id="Path_13384" data-name="Path 13384" d="M45.46,432.285c0,.035,37.059.065,82.764.065s82.774-.03,82.774-.065-37.057-.065-82.769-.065S45.46,432.248,45.46,432.285Z" transform="translate(-45.46 -432.22)" fill="#263238"/>
  </g>
  <g id="freepik--Car--inject-130" transform="translate(9.337 25.446)">
    <rect id="Rectangle_2673" data-name="Rectangle 2673" width="142.383" height="19.262" transform="translate(9.821 30.295)" fill="#166673"/>
    <g id="Group_6647" data-name="Group 6647" transform="translate(9.821 30.295)" opacity="0.4">
      <path id="Path_15099" data-name="Path 15099" d="M142.383,0H0V19.262H142.383Z" transform="translate(0)"/>
    </g>
    <path id="Path_13697" data-name="Path 13697" d="M25.563,202.172a11.806,11.806,0,0,1,9.705-7.668l31.969-3.77L78.906,182.4a47.832,47.832,0,0,1,27.8-8.9h75.875a1.312,1.312,0,0,1,.5,2.513l-5.47,2.34a10.064,10.064,0,0,1,.55,1.076l3.089,7.163a13.961,13.961,0,0,1,1.14,5.529,3.131,3.131,0,0,1,3.13,3.129v12.479l3.24,1.448a4.336,4.336,0,0,1,2.562,3.953v3.237a5.277,5.277,0,0,1-4.245,5.187l-17.152,3.433v-1.551a16.562,16.562,0,0,0-16.557-16.568h0a16.562,16.562,0,0,0-16.557,16.568v1.551H67.9v-1.551a16.562,16.562,0,0,0-16.557-16.568h0a16.562,16.562,0,0,0-16.557,16.568v1.551H26.324a4.136,4.136,0,0,1-4.134-4.139v-9.463Z" transform="translate(-21.743 -173.5)" fill="url(#linear-gradient)"/>
    <path id="Path_13698" data-name="Path 13698" d="M61.952,193.906l3.091,7.163a13.954,13.954,0,0,1,1.141,5.529H61.912L57.74,194.4,61.4,192.83A10.066,10.066,0,0,1,61.952,193.906Z" transform="translate(94.459 -187.972)" fill="#455a64"/>
    <path id="Path_13699" data-name="Path 13699" d="M663.665,281.591a11.732,11.732,0,0,1,.97-2.011h4.524l-4.1,9.525-4.775,2.765v-1.056Z" transform="translate(-659.843 -252.919)" fill="#166673"/>
    <g id="Group_6648" data-name="Group 6648" transform="translate(0.437 26.661)" opacity="0.2">
      <path id="Path_13700" data-name="Path 13700" d="M663.665,281.591a11.732,11.732,0,0,1,.97-2.011h4.524l-4.1,9.525-4.775,2.765v-1.056Z" transform="translate(-660.28 -279.58)"/>
    </g>
    <path id="Path_13701" data-name="Path 13701" d="M56.341,267.47h-2.35a6.6,6.6,0,0,1-3.77-1.176L46.31,263.58a2.551,2.551,0,0,1-1.1-2.1h0a2.558,2.558,0,0,1,2.559-2.559h8.545a.374.374,0,0,1,.374.374v7.791a.374.374,0,0,1-.347.385Z" transform="translate(107.105 -237.451)" fill="#ebebeb"/>
    <path id="Path_13702" data-name="Path 13702" d="M658.528,289.787,659.89,289h-.832a.5.5,0,0,1,0-.988H661.6l.857-.5h-2.905a.5.5,0,0,1,0-.99h3.858l.214-.5h-3.494a.5.5,0,1,1,0-.988h3.918l.214-.5h-3.647a.5.5,0,1,1,0-.988H664.7l.214-.5H661.18a.5.5,0,0,1,0-.988h4.152l.211-.5h-3.788a.5.5,0,1,1,0-.988h4.215l.214-.5h-3.9a.5.5,0,0,1,0-.99h4.328l.3-.684H663.12a.5.5,0,1,1,0-.988h4.524a.5.5,0,0,1,.455.689l-1.36,3.154h0l-.638,1.483h0l-.638,1.483h0l-.638,1.483h0l-.638,1.48h0L664,287.6a.519.519,0,0,1-.206.234l-4.775,2.765a.5.5,0,0,1-.5-.857Z" transform="translate(-658.328 -251.276)" fill="#166673"/>
    <g id="Group_6649" data-name="Group 6649" transform="translate(0 26.109)" opacity="0.2">
      <path id="Path_13703" data-name="Path 13703" d="M658.528,289.787,659.89,289h-.832a.5.5,0,0,1,0-.988H661.6l.857-.5h-2.905a.5.5,0,0,1,0-.99h3.858l.214-.5h-3.494a.5.5,0,1,1,0-.988h3.918l.214-.5h-3.647a.5.5,0,1,1,0-.988H664.7l.214-.5H661.18a.5.5,0,0,1,0-.988h4.152l.211-.5h-3.788a.5.5,0,1,1,0-.988h4.215l.214-.5h-3.9a.5.5,0,0,1,0-.99h4.328l.3-.684H663.12a.5.5,0,1,1,0-.988h4.524a.5.5,0,0,1,.455.689l-1.36,3.154h0l-.638,1.483h0l-.638,1.483h0l-.638,1.483h0l-.638,1.48h0L664,287.6a.519.519,0,0,1-.206.234l-4.775,2.765a.5.5,0,0,1-.5-.857Z" transform="translate(-658.328 -277.385)" fill="#fff"/>
    </g>
    <circle id="Ellipse_893" data-name="Ellipse 893" cx="14.439" cy="14.439" r="14.439" transform="matrix(-1, -0.015, 0.015, -1, 145.442, 65.273)" fill="#263238"/>
    <path id="Path_13704" data-name="Path 13704" d="M146.218,373.94a.19.19,0,0,1,0,.038,14.438,14.438,0,1,1-28.874.417.194.194,0,0,1,0-.038Z" transform="translate(-0.556 -323.564)" fill="#263238"/>
    <path id="Path_13705" data-name="Path 13705" d="M154.717,344.577a10.136,10.136,0,1,1-10.282-9.99,10.136,10.136,0,0,1,10.282,9.99Z" transform="translate(-13.332 -294.1)" fill="#fafafa"/>
    <path id="Path_13706" data-name="Path 13706" d="M144.441,334.587a10.136,10.136,0,0,1,10.282,9.99l-20.272.292A10.136,10.136,0,0,1,144.441,334.587Z" transform="translate(-13.339 -294.1)" fill="#e0e0e0"/>
    <path id="Path_13707" data-name="Path 13707" d="M162.557,356.433a6.175,6.175,0,1,1-6.263-6.085A6.175,6.175,0,0,1,162.557,356.433Z" transform="translate(-25.132 -305.901)" fill="#263238"/>
    <circle id="Ellipse_894" data-name="Ellipse 894" cx="14.439" cy="14.439" r="14.439" transform="translate(42.67 66.275) rotate(-174.97)" fill="#263238"/>
    <path id="Path_13708" data-name="Path 13708" d="M551.209,373.94v.038a14.439,14.439,0,1,1-28.875.417v-.038Z" transform="translate(-507.225 -323.564)" fill="#263238"/>
    <path id="Path_13709" data-name="Path 13709" d="M559.707,344.577a10.136,10.136,0,1,1-10.282-9.99,10.136,10.136,0,0,1,10.282,9.99Z" transform="translate(-520.02 -294.1)" fill="#fafafa"/>
    <path id="Path_13710" data-name="Path 13710" d="M549.431,334.587a10.136,10.136,0,0,1,10.282,9.99l-20.272.292A10.136,10.136,0,0,1,549.431,334.587Z" transform="translate(-520.026 -294.1)" fill="#e0e0e0"/>
    <path id="Path_13711" data-name="Path 13711" d="M567.557,356.433a6.175,6.175,0,1,1-6.263-6.085A6.175,6.175,0,0,1,567.557,356.433Z" transform="translate(-531.834 -305.9)" fill="#263238"/>
    <path id="Path_13712" data-name="Path 13712" d="M411.14,199.98l11.677-8.334A47.882,47.882,0,0,1,433.7,185.84h3.85l-23.359,15.525Z" transform="translate(-365.652 -182.739)" fill="#455a64"/>
    <path id="Path_13713" data-name="Path 13713" d="M658.957,267.2h-5.675a13.819,13.819,0,0,1,2.92-2.865C657.5,263.916,659.083,265.542,658.957,267.2Z" transform="translate(-647.889 -241.454)" fill="#fafafa"/>
    <path id="Path_13714" data-name="Path 13714" d="M193.752,199.989H118.63l21.453-14.8a9.163,9.163,0,0,1,5.421-1.774h46.564s16.728-.41,20.4,4.637Z" transform="translate(-67.129 -180.918)" fill="#263238"/>
    <path id="Path_13716" data-name="Path 13716" d="M349.151,277.936a.235.235,0,0,0,0-.073v-1.056c0-.736-.013-1.787-.023-3.079-.03-2.609-.073-6.2-.118-10.159-.03-1.983-.058-3.873-.083-5.592,0-.86-.028-1.676-.04-2.44a13.617,13.617,0,0,1,.073-2.116,14.828,14.828,0,0,1,.7-2.986c.118-.342.219-.606.289-.784l.083-.2a.319.319,0,0,0,.025-.07.38.38,0,0,0-.038.065c-.023.043-.053.111-.093.2-.08.176-.189.437-.317.777a14.328,14.328,0,0,0-.739,2.991,13.4,13.4,0,0,0-.09,2.129c0,.767.018,1.583.028,2.44.023,1.722.048,3.609.073,5.595.06,3.961.116,7.54.158,10.156.025,1.292.048,2.342.063,3.079q.015.535.023.837v.219A.277.277,0,0,0,349.151,277.936Z" transform="translate(-262.504 -230.309)" fill="#263238"/>
    <path id="Path_13717" data-name="Path 13717" d="M485.051,253.87a.228.228,0,0,0-.058.04c-.045.033-.1.075-.168.131l-.123.1-.128.138a2.939,2.939,0,0,0-.3.359,9.625,9.625,0,0,0-1.3,2.694,20,20,0,0,0-.561,1.993c-.085.362-.161.739-.231,1.131a5.6,5.6,0,0,0-.093,1.224c0,1.671.053,3.519.1,5.436.1,3.855.216,7.344.309,9.87.048,1.257.088,2.275.116,2.991.018.344.03.618.04.812l.013.211a.338.338,0,0,0,0,.073.427.427,0,0,0,0-.073v-1.025c-.02-.716-.045-1.734-.075-2.991-.07-2.533-.166-6.019-.271-9.872-.048-1.925-.1-3.77-.111-5.431a5.615,5.615,0,0,1,.085-1.206c.068-.387.141-.754.224-1.126.163-.721.347-1.387.54-1.988a9.966,9.966,0,0,1,1.264-2.7A4.711,4.711,0,0,1,485.051,253.87Z" transform="translate(-430.982 -233.671)" fill="#263238"/>
    <path id="Path_13718" data-name="Path 13718" d="M442.859,236.986h0a2.579,2.579,0,0,1,1.317-2.262l3.38-1.9a6.469,6.469,0,0,1,3.159-.824h0a6.443,6.443,0,0,1,2.011.319,3.669,3.669,0,0,1,2.466,3.368h0a3.727,3.727,0,0,1-3.725,3.868h-6.032A2.581,2.581,0,0,1,442.859,236.986Z" transform="translate(-391.27 -217.297)" fill="url(#linear-gradient-2)"/>
    <path id="Path_13719" data-name="Path 13719" d="M442.592,236.784a1.954,1.954,0,0,0,.04.327,2.576,2.576,0,0,0,.3.885,2.633,2.633,0,0,0,1.035,1.02,2.558,2.558,0,0,0,.87.274c.319.038.674.015,1.04.02l5.16-.018a3.939,3.939,0,0,0,1.435-.236,3.665,3.665,0,0,0,.839-6.411,3.873,3.873,0,0,0-1.4-.591,6.5,6.5,0,0,0-1.46-.173,6.4,6.4,0,0,0-2.646.568c-.39.173-.754.395-1.1.586l-1.005.558-1.734.963a2.6,2.6,0,0,0-1.038,1.013,2.639,2.639,0,0,0-.3.882c-.033.214-.028.327-.038.327a1.622,1.622,0,0,1,0-.329,2.514,2.514,0,0,1,.279-.907,2.609,2.609,0,0,1,1.046-1.071l1.722-.98,1.005-.568c.352-.194.7-.417,1.1-.6a6.512,6.512,0,0,1,4.2-.422,4.049,4.049,0,0,1,1.45.608,3.8,3.8,0,0,1,1.591,2.815,3.878,3.878,0,0,1-.236,1.664,3.828,3.828,0,0,1-2.229,2.2,3.99,3.99,0,0,1-1.488.239l-5.16-.015a10.243,10.243,0,0,1-1.053-.033,2.569,2.569,0,0,1-.9-.3,2.685,2.685,0,0,1-1.051-1.068,2.488,2.488,0,0,1-.274-.907A1.85,1.85,0,0,1,442.592,236.784Z" transform="translate(-391.003 -217.095)" fill="#263238"/>
    <path id="Path_13720" data-name="Path 13720" d="M463.79,235.27a3.229,3.229,0,0,0-.292-.281,1.993,1.993,0,0,0-1.005-.4,4.373,4.373,0,0,0-1.609.173,12.649,12.649,0,0,0-1.9.646,12.441,12.441,0,0,0-3.089,1.923c-.719.6-1.1,1.046-1.118,1.025a1.819,1.819,0,0,1,.251-.322,9.654,9.654,0,0,1,.792-.789,11.461,11.461,0,0,1,3.1-1.98,11.771,11.771,0,0,1,1.925-.643,4.333,4.333,0,0,1,1.659-.143,1.96,1.96,0,0,1,1.02.467,1.278,1.278,0,0,1,.2.231A.343.343,0,0,1,463.79,235.27Z" transform="translate(-402.861 -219.132)" fill="#fff"/>
    <path id="Path_13721" data-name="Path 13721" d="M83.744,310.131v-.178c0-.118-.015-.3-.028-.523s-.038-.5-.04-.847.013-.724.02-1.159.08-.917.123-1.445c.025-.264.085-.535.128-.819s.085-.581.158-.882a22.2,22.2,0,0,1,1.294-3.991A21.407,21.407,0,0,1,88,295.92a20.535,20.535,0,0,1,4.154-4.074,19.576,19.576,0,0,1,5.738-2.893,22.829,22.829,0,0,1,6.829-1.033A23.579,23.579,0,0,1,111.543,289a21.387,21.387,0,0,1,5.781,2.832,23.375,23.375,0,0,1,4.34,3.891,25.357,25.357,0,0,1,2.938,4.152,27.89,27.89,0,0,1,1.732,3.82c.111.289.191.578.284.849s.181.535.251.792c.128.5.251.98.357,1.407l.226,1.136c.06.329.09.613.126.839l.075.518c.018.116.03.176.03.176a1.362,1.362,0,0,0-.018-.178l-.063-.518c-.03-.229-.058-.5-.113-.844s-.133-.711-.216-1.141-.219-.895-.344-1.41c-.063-.251-.158-.52-.251-.8s-.171-.563-.279-.855a27.316,27.316,0,0,0-1.734-3.84,25.451,25.451,0,0,0-2.936-4.18,23.523,23.523,0,0,0-4.356-3.918,21.467,21.467,0,0,0-5.8-2.855,23.769,23.769,0,0,0-6.861-1.086,22.944,22.944,0,0,0-6.866,1.04,19.71,19.71,0,0,0-5.768,2.918,20.628,20.628,0,0,0-4.175,4.1,21.519,21.519,0,0,0-2.6,4.4,22.167,22.167,0,0,0-1.279,4.021c-.073.3-.1.6-.156.885s-.1.558-.123.824c-.038.53-.1,1.005-.111,1.45s0,.824,0,1.161.04.618.053.85.03.4.04.52S83.744,310.131,83.744,310.131Z" transform="translate(26.453 -259.066)" fill="#263238"/>
    <path id="Path_13722" data-name="Path 13722" d="M192.9,258.608a1,1,0,0,0,.075-.1c.045-.065.111-.181.186-.3.158-.251.385-.638.651-1.116a18.6,18.6,0,0,0,.865-1.714,3,3,0,0,0,.176-.538.7.7,0,0,0-.018-.307c-.023-.1-.053-.188-.08-.284-.126-.374-.269-.754-.425-1.141-.621-1.546-1.242-2.918-1.691-3.911-.229-.5-.415-.895-.548-1.169-.06-.126-.113-.231-.156-.317a.4.4,0,0,0-.063-.106.539.539,0,0,0,.04.118l.133.324.5,1.186c.43,1.005,1.035,2.38,1.656,3.921.153.384.3.754.422,1.133a1.183,1.183,0,0,1,.1.533,2.62,2.62,0,0,1-.163.5c-.276.661-.581,1.234-.834,1.717l-.613,1.134-.166.309A.668.668,0,0,0,192.9,258.608Z" transform="translate(-67.903 -228.984)" fill="#263238"/>
    <path id="Path_13723" data-name="Path 13723" d="M44.72,310.262c0,.038,4.041.048,9.025.025s9.028-.07,9.028-.106-4.041-.048-9.028-.025S44.72,310.227,44.72,310.262Z" transform="translate(101.143 -275.802)" fill="#263238"/>
    <path id="Path_13724" data-name="Path 13724" d="M258.53,361.9c0,.035,13.112.065,29.282.065s29.282-.033,29.282-.068-13.107-.065-29.282-.065S258.53,361.873,258.53,361.9Z" transform="translate(-206.858 -314.497)" fill="#263238"/>
    <path id="Path_13725" data-name="Path 13725" d="M659.86,362.525c0,.038,2.011.065,4.484.065s4.486-.028,4.486-.065-2.011-.065-4.486-.065S659.86,362.49,659.86,362.525Z" transform="translate(-659.408 -314.969)" fill="#263238"/>
    <path id="Path_13726" data-name="Path 13726" d="M504.82,253.2h.108l.279-.02,1.081-.088c.94-.075,2.295-.2,3.971-.367,3.35-.334,7.972-.857,13.069-1.568s9.676-1.475,12.989-2.076c1.656-.3,3-.55,3.918-.734l1.063-.214.276-.058.093-.025a.548.548,0,0,0-.1,0l-.279.045-1.068.189-3.923.694c-3.315.575-7.907,1.324-12.994,2.036s-9.7,1.257-13.049,1.606l-3.963.41-1.078.113-.281.03Z" transform="translate(-493.28 -229.315)" fill="#263238"/>
    <path id="Path_13727" data-name="Path 13727" d="M364.94,265.981a1.01,1.01,0,0,1-.2-.03,1.41,1.41,0,0,1-.535-.214,1.362,1.362,0,0,1-.545-.709,1.51,1.51,0,0,1-.07-.56,1.389,1.389,0,0,1,.158-.608,1.345,1.345,0,0,1,1.174-.714h5.66a1.337,1.337,0,0,1,1.324,1.184,1.507,1.507,0,0,1-.163.9,1.354,1.354,0,0,1-.653.581,2.094,2.094,0,0,1-.847.1h-2.345l-2.172.023h-.588a1.308,1.308,0,0,0-.206.013,1.009,1.009,0,0,0,.206.013l.588.013,2.172.05h2.782a1.506,1.506,0,0,0,.455-.1,1.478,1.478,0,0,0,.716-.631,1.616,1.616,0,0,0,.181-.978,1.463,1.463,0,0,0-1.453-1.3h-5.66a1.448,1.448,0,0,0-1.257.782,1.471,1.471,0,0,0-.161.648,1.6,1.6,0,0,0,.085.588,1.41,1.41,0,0,0,.588.729,1.37,1.37,0,0,0,.56.2A.81.81,0,0,0,364.94,265.981Z" transform="translate(-288.185 -240.514)" fill="#263238"/>
    <path id="Path_13728" data-name="Path 13728" d="M372.05,261.592a36.811,36.811,0,0,0,4.469,0,38.235,38.235,0,0,0-4.469,0Z" transform="translate(-294.813 -239.397)" fill="#fff"/>
    <path id="Path_13729" data-name="Path 13729" d="M217.181,266.838a1.011,1.011,0,0,1-.2-.03,1.37,1.37,0,0,1-.535-.214,1.35,1.35,0,0,1-.545-.709,1.488,1.488,0,0,1-.07-.56,1.388,1.388,0,0,1,.158-.608,1.355,1.355,0,0,1,1.174-.714h5.66a1.337,1.337,0,0,1,1.325,1.184,1.508,1.508,0,0,1-.163.9,1.355,1.355,0,0,1-.654.581,2.048,2.048,0,0,1-.847.1h-2.342l-2.172.02-.588.013a1.319,1.319,0,0,0-.206.013,1.087,1.087,0,0,0,.206.015l.588.013,2.172.02h2.782a1.438,1.438,0,0,0,.455-.1,1.465,1.465,0,0,0,.716-.631,1.614,1.614,0,0,0,.181-.975,1.46,1.46,0,0,0-1.453-1.3h-5.662a1.445,1.445,0,0,0-1.257.782,1.471,1.471,0,0,0-.161.648,1.6,1.6,0,0,0,.085.588,1.41,1.41,0,0,0,.588.729,1.36,1.36,0,0,0,.558.2A.826.826,0,0,0,217.181,266.838Z" transform="translate(-103.317 -241.142)" fill="#263238"/>
    <path id="Path_13730" data-name="Path 13730" d="M224.32,262.5a36.827,36.827,0,0,0,4.469,0,38.217,38.217,0,0,0-4.469,0Z" transform="translate(-109.978 -240.078)" fill="#fff"/>
    <path id="Path_13731" data-name="Path 13731" d="M490.827,312.114v-1.548c0-.344.05-.721.08-1.154s.121-.912.188-1.438c.035-.251.106-.53.158-.812s.111-.575.191-.872a23.934,23.934,0,0,1,1.4-3.953,22.68,22.68,0,0,1,2.654-4.325,21.255,21.255,0,0,1,4.162-4.059,19.83,19.83,0,0,1,5.71-2.928,22.036,22.036,0,0,1,13.617,0,19.9,19.9,0,0,1,5.713,2.925,21.324,21.324,0,0,1,4.162,4.059,22.683,22.683,0,0,1,2.654,4.328,23.9,23.9,0,0,1,1.4,3.951c.081.3.128.593.191.875s.123.55.158.812c.068.525.151,1.005.189,1.435s.055.819.08,1.154,0,.621,0,.849v0c0-.226.015-.515,0-.849s-.043-.724-.068-1.159-.113-.912-.176-1.44c-.033-.251-.1-.533-.156-.817s-.106-.578-.186-.877a24.085,24.085,0,0,0-1.382-3.973,22.786,22.786,0,0,0-2.6-4.353,21.341,21.341,0,0,0-4.177-4.092,20,20,0,0,0-5.743-2.951,22.117,22.117,0,0,0-13.7,0,19.852,19.852,0,0,0-5.74,2.951,21.26,21.26,0,0,0-4.177,4.089,22.725,22.725,0,0,0-2.657,4.356,23.908,23.908,0,0,0-1.385,3.976c-.08.3-.126.6-.186.877s-.121.553-.153.814c-.065.528-.143,1.005-.178,1.443s-.048.822-.068,1.159,0,.618,0,.847v.523A.539.539,0,0,0,490.827,312.114Z" transform="translate(-481.629 -260.581)" fill="#263238"/>
    <path id="Path_13732" data-name="Path 13732" d="M51.15,180.071a.549.549,0,0,0,.113,0h6.281l15.439-.05,8.5-.043c2.611-.02,4.966,0,6.942-.116a34.283,34.283,0,0,0,4.65-.535c.543-.1.963-.2,1.244-.271l.319-.083a.75.75,0,0,0,.108-.033l-.111.02-.324.07c-.281.065-.7.151-1.257.251a36.491,36.491,0,0,1-4.645.49c-1.973.1-4.325.075-6.937.088l-8.5.033-15.439.088-4.68.043-1.272.018h-.329A.509.509,0,0,1,51.15,180.071Z" transform="translate(67.552 -177.573)" fill="#263238"/>
    <path id="Path_13733" data-name="Path 13733" d="M246.65,209.918c-.018.03,2.719,1.508,6.11,3.267s6.155,3.189,6.17,3.157-2.717-1.508-6.11-3.267S246.665,209.886,246.65,209.918Z" transform="translate(-145.726 -200.765)" fill="#fafafa"/>
    <path id="Path_13734" data-name="Path 13734" d="M265.28,205.35a.715.715,0,0,0,.133.08l.39.211,1.44.754c1.216.638,2.893,1.523,4.732,2.513s3.493,1.93,4.687,2.606l1.415.8.387.214a.566.566,0,0,0,.141.065.821.821,0,0,0-.126-.088l-.374-.234c-.329-.2-.8-.488-1.4-.837-1.181-.7-2.83-1.639-4.672-2.641s-3.519-1.875-4.753-2.491c-.613-.307-1.111-.553-1.458-.716l-.4-.189A.539.539,0,0,0,265.28,205.35Z" transform="translate(-170.08 -197.345)" fill="#fafafa"/>
    <path id="Path_13735" data-name="Path 13735" d="M374.43,213.64a.429.429,0,0,0,.108.06l.314.146,1.166.52c.985.44,2.34,1.058,3.823,1.774s2.807,1.392,3.77,1.89l1.134.591.312.156a.484.484,0,0,0,.111.048.756.756,0,0,0-.1-.07l-.3-.178c-.251-.153-.641-.367-1.113-.626-.948-.518-2.262-1.211-3.752-1.928s-2.848-1.322-3.843-1.742c-.5-.209-.9-.374-1.184-.483l-.324-.123A.49.49,0,0,0,374.43,213.64Z" transform="translate(-304.056 -203.552)" fill="#fafafa"/>
    <path id="Path_13736" data-name="Path 13736" d="M383.85,212.25a5.977,5.977,0,0,0,.716.367c.445.219,1.058.528,1.719.9s1.257.729,1.666.993a6.109,6.109,0,0,0,.691.417,4.108,4.108,0,0,0-.638-.5c-.41-.287-.99-.661-1.654-1.03a19.355,19.355,0,0,0-1.747-.867A3.967,3.967,0,0,0,383.85,212.25Z" transform="translate(-309.9 -202.511)" fill="#fafafa"/>
    <path id="Path_13737" data-name="Path 13737" d="M147.37,211.677c-.015.035,1.8.754,4.044,1.626s4.079,1.536,4.092,1.508-1.8-.754-4.044-1.624S147.382,211.644,147.37,211.677Z" transform="translate(-17.367 -202.081)" fill="#fafafa"/>
    <path id="Path_13738" data-name="Path 13738" d="M142.519,208.685c-.013.033,1.551.636,3.488,1.342s3.519,1.257,3.536,1.221-1.551-.636-3.491-1.345S142.532,208.65,142.519,208.685Z" transform="translate(-10.188 -199.841)" fill="#fafafa"/>
    <path id="Path_13739" data-name="Path 13739" d="M516.56,286.415a1.141,1.141,0,0,0,.206-.013l.586-.058.422-.045c.156-.012.324-.02.5-.03.365-.018.777-.058,1.232-.05h.719c.251,0,.5.018.777.028.535,0,1.106.075,1.709.131a25.012,25.012,0,0,1,7.54,2.071c.545.251,1.068.5,1.536.754.236.131.467.251.684.375l.613.369c.395.229.729.472,1.033.671.151.1.292.2.417.286s.239.176.342.251l.473.349a1.042,1.042,0,0,0,.171.116,1.116,1.116,0,0,0-.153-.136l-.46-.369-.334-.264c-.126-.1-.251-.189-.412-.294-.3-.209-.633-.457-1.028-.691l-.611-.38c-.214-.131-.447-.251-.681-.382-.468-.269-1.005-.5-1.538-.774a24.378,24.378,0,0,0-7.58-2.084c-.606-.053-1.179-.113-1.719-.118-.269,0-.528-.025-.779-.02l-.719.013c-.46,0-.872.045-1.236.07-.181.015-.349.023-.5.04l-.422.058-.586.083A1.1,1.1,0,0,0,516.56,286.415Z" transform="translate(-490.102 -257.806)" fill="#fafafa"/>
    <path id="Path_13740" data-name="Path 13740" d="M117.86,284.505a.823.823,0,0,0,.163.013h.465c.2,0,.447,0,.734.02s.613.023.97.063l.565.05c.194.02.4.053.608.078.42.05.865.138,1.335.219a28.006,28.006,0,0,1,3,.782,30.544,30.544,0,0,1,2.89,1.121c.867.395,1.634.782,2.262,1.136.319.168.6.339.844.483s.46.269.631.377l.4.251a.89.89,0,0,0,.143.078.65.65,0,0,0-.128-.1c-.1-.065-.226-.153-.385-.251s-.374-.251-.621-.4-.52-.327-.837-.5c-.626-.364-1.392-.754-2.262-1.166a28.907,28.907,0,0,0-2.9-1.159,26.31,26.31,0,0,0-3.016-.774c-.472-.078-.92-.163-1.345-.206-.211-.025-.415-.055-.611-.073l-.568-.043c-.359-.035-.689-.035-.975-.043s-.535,0-.736,0l-.467.018A.672.672,0,0,0,117.86,284.505Z" transform="translate(12.667 -256.57)" fill="#fafafa"/>
    <path id="Path_13741" data-name="Path 13741" d="M255.63,203.383l.586-14.183-22.76-.94-.586,14.185Zm.324-13.931-.565,13.682-22.258-.92.566-13.682Z" transform="translate(-139.548 -184.55)" fill="#263238"/>
    <path id="Path_13758" data-name="Path 13758" d="M305.28,228.469a4.181,4.181,0,0,0,.626.221c.4.126.957.3,1.608.488l.158.048-.088-.141c-.151-.251-.309-.5-.478-.767l-.347-.553a4.4,4.4,0,0,1-.3-.518.5.5,0,0,1-.015-.478.427.427,0,0,1,.37-.181.8.8,0,0,1,.565.3,1.608,1.608,0,0,0,.171.191.755.755,0,0,0-.131-.224,1.165,1.165,0,0,0-.216-.219.7.7,0,0,0-.39-.143.525.525,0,0,0-.462.216.621.621,0,0,0,0,.583,4.048,4.048,0,0,0,.3.535l.337.55c.168.266.332.523.483.754l.07-.1c-.653-.184-1.219-.337-1.621-.442A3.825,3.825,0,0,0,305.28,228.469Z" transform="translate(-209.197 -213.176)" fill="#263238"/>
    <rect id="Rectangle_2677" data-name="Rectangle 2677" width="1.516" height="2.224" transform="translate(114.265 3.431)" fill="#fafafa"/>
    <rect id="Rectangle_2678" data-name="Rectangle 2678" width="1.516" height="1.061" transform="translate(94.448 3.358)" fill="#fafafa"/>
  </g>
</svg>
