<svg xmlns="http://www.w3.org/2000/svg" width="58.072" height="39.924" viewBox="0 0 58.072 39.924">
  <g id="svgexport-17_-_2024-02-05T121359.214" data-name="svgexport-17 - 2024-02-05T121359.214" transform="translate(0 -80)">
    <path id="Path_20013" data-name="Path 20013" d="M58.072,89.414V86.352A6.352,6.352,0,0,0,51.72,80H6.352A6.352,6.352,0,0,0,0,86.352v3.062a.567.567,0,0,0,.567.567H57.5A.567.567,0,0,0,58.072,89.414ZM0,94.178v19.4a6.352,6.352,0,0,0,6.352,6.352H51.72a6.352,6.352,0,0,0,6.352-6.352v-19.4a.567.567,0,0,0-.567-.567H.567A.567.567,0,0,0,0,94.178Zm14.518,14.858a1.815,1.815,0,0,1-1.815,1.815H10.889a1.815,1.815,0,0,1-1.815-1.815v-1.815a1.815,1.815,0,0,1,1.815-1.815H12.7a1.815,1.815,0,0,1,1.815,1.815Z" transform="translate(0)" fill="#1db9c3"/>
  </g>
</svg>
