<svg id="svgexport-11_13_" data-name="svgexport-11 (13)" xmlns="http://www.w3.org/2000/svg" width="27.251" height="27.251" viewBox="0 0 27.251 27.251">
  <path id="Path_16190" data-name="Path 16190" d="M13.626,27.251A13.626,13.626,0,1,1,27.251,13.626,13.641,13.641,0,0,1,13.626,27.251Zm7.066-8.839a.305.305,0,0,0,.3-.3V9.553l-6.933,5.505a.7.7,0,0,1-.877,0L6.255,9.553v8.554a.305.305,0,0,0,.3.3ZM19.629,8.839l-6,4.768-6-4.768Zm2.777.3v8.964a1.716,1.716,0,0,1-1.714,1.714H6.56a1.716,1.716,0,0,1-1.714-1.714V9.144A1.716,1.716,0,0,1,6.56,7.43H20.692A1.716,1.716,0,0,1,22.406,9.144Z" fill="#ff5929" fill-rule="evenodd"/>
</svg>
