<svg xmlns="http://www.w3.org/2000/svg" width="25" height="20" viewBox="0 0 25 20">
  <g id="svgexport-17_65_" data-name="svgexport-17 (65)" transform="translate(-2 -4)">
    <path id="Path_18486" data-name="Path 18486" d="M21.116,4.366a1.25,1.25,0,0,0,0,1.768L22.733,7.75H15.75a5,5,0,0,0-5,5V14a1.25,1.25,0,0,0,2.5,0V12.75a2.5,2.5,0,0,1,2.5-2.5h6.983l-1.616,1.616a1.25,1.25,0,1,0,1.768,1.768l3.75-3.75a1.25,1.25,0,0,0,0-1.768l-3.75-3.75a1.25,1.25,0,0,0-1.768,0ZM17,12.75A1.25,1.25,0,0,0,15.75,14v1.25a2.5,2.5,0,0,1-2.5,2.5H6.267l1.616-1.616a1.25,1.25,0,1,0-1.768-1.768l-3.75,3.75a1.25,1.25,0,0,0,0,1.768l3.75,3.75a1.25,1.25,0,1,0,1.768-1.768L6.267,20.25H13.25a5,5,0,0,0,5-5V14A1.25,1.25,0,0,0,17,12.75Z" fill="#fff" fill-rule="evenodd"/>
  </g>
</svg>
