<svg xmlns="http://www.w3.org/2000/svg" width="48" height="48" viewBox="0 0 48 48">
  <g id="Group_14843" data-name="Group 14843" transform="translate(-738 -720)">
    <g id="Group_14116" data-name="Group 14116" transform="translate(-267 -5)">
      <g id="Group_14115" data-name="Group 14115" transform="translate(1005 725)">
        <rect id="Rectangle_221" data-name="Rectangle 221" width="48" height="48" rx="10" fill="#05f" opacity="0.17"/>
      </g>
    </g>
    <g id="svgexport-7_62_" data-name="svgexport-7 (62)" transform="translate(749 731)">
      <path id="Path_16179" data-name="Path 16179" d="M28.06,13.2H2.57a.377.377,0,0,1-.377-.377V10.07a.377.377,0,0,1,.182-.323L15.117,2.054a.377.377,0,0,1,.389,0L28.254,9.747a.377.377,0,0,1,.182.323v2.75A.377.377,0,0,1,28.06,13.2ZM2.947,12.443H27.683v-2.16L15.313,2.817,2.947,10.282Z" transform="translate(-2.12 -2)" fill="#05f" stroke="#05f" stroke-width="0.5"/>
      <path id="Path_16180" data-name="Path 16180" d="M33.274,16.861a2.255,2.255,0,1,1,2.255-2.255,2.255,2.255,0,0,1-2.255,2.255Zm0-3.756a1.5,1.5,0,1,0,1.5,1.5A1.5,1.5,0,0,0,33.274,13.1Zm10.545,8.922H39.807a.815.815,0,0,1-.814-.815V19.268a.377.377,0,0,1,.377-.377h4.886a.377.377,0,0,1,.377.377v1.945A.815.815,0,0,1,43.819,22.027Zm-4.071-2.383v1.568a.061.061,0,0,0,.06.061h4.011a.061.061,0,0,0,.06-.061V19.645Z" transform="translate(-20.079 -8.449)" fill="#05f" stroke="#05f" stroke-width="0.5"/>
      <path id="Path_16181" data-name="Path 16181" d="M57.942,44.385H54.615a.377.377,0,0,1-.377-.377V36.393a.377.377,0,0,1,.377-.377h3.327a.377.377,0,0,1,.377.377v7.615A.377.377,0,0,1,57.942,44.385Zm-2.95-.754h2.573V36.77H54.992Z" transform="translate(-34.545 -23.192)" fill="#05f" stroke="#05f" stroke-width="0.5"/>
      <path id="Path_16182" data-name="Path 16182" d="M43.322,42.833H38.436a.377.377,0,0,1-.377-.377V40.511a.815.815,0,0,1,.814-.815h4.012a.815.815,0,0,1,.814.815v1.945A.377.377,0,0,1,43.322,42.833Zm-4.509-.754h4.132V40.511a.061.061,0,0,0-.06-.061H38.873a.061.061,0,0,0-.06.061Zm-4.468-9.243H30.334a.815.815,0,0,1-.814-.815V30.077A.377.377,0,0,1,29.9,29.7h4.886a.377.377,0,0,1,.377.377v1.945a.815.815,0,0,1-.814.814Zm-4.071-2.381v1.568a.061.061,0,0,0,.06.061h4.011a.061.061,0,0,0,.06-.061V30.454Z" transform="translate(-19.145 -19.258)" fill="#05f" stroke="#05f" stroke-width="0.5"/>
      <path id="Path_16183" data-name="Path 16183" d="M35.294,44.385H31.977a.377.377,0,0,1-.377-.377V36.393a.377.377,0,0,1,.377-.377h3.317a.377.377,0,0,1,.377.377v7.615A.377.377,0,0,1,35.294,44.385Zm-2.941-.754h2.564V36.77H32.354Z" transform="translate(-20.441 -23.192)" fill="#05f" stroke="#05f" stroke-width="0.5"/>
      <path id="Path_16184" data-name="Path 16184" d="M21.293,42.833H16.408a.377.377,0,0,1-.377-.377V40.511a.815.815,0,0,1,.814-.815h4.011a.815.815,0,0,1,.814.815v1.945A.377.377,0,0,1,21.293,42.833Zm-4.509-.754h4.132V40.511a.061.061,0,0,0-.06-.061H16.845a.061.061,0,0,0-.06.061Zm-4.09-9.243H8.682a.815.815,0,0,1-.814-.815V30.077a.377.377,0,0,1,.377-.377h4.886a.377.377,0,0,1,.377.377v1.945a.815.815,0,0,1-.814.814ZM8.622,30.454v1.568a.061.061,0,0,0,.06.061h4.012a.061.061,0,0,0,.06-.061V30.454Z" transform="translate(-5.656 -19.258)" fill="#05f" stroke="#05f" stroke-width="0.5"/>
      <path id="Path_16185" data-name="Path 16185" d="M13.632,44.385H10.277a.377.377,0,0,1-.377-.377V36.393a.377.377,0,0,1,.377-.377h3.355a.377.377,0,0,1,.377.377v7.615A.377.377,0,0,1,13.632,44.385Zm-2.978-.754h2.6V36.77h-2.6Z" transform="translate(-6.922 -23.192)" fill="#05f" stroke="#05f" stroke-width="0.5"/>
      <path id="Path_16186" data-name="Path 16186" d="M13.131,59.353H8.245a.377.377,0,0,1-.377-.377V57.031a.815.815,0,0,1,.814-.815h4.012a.815.815,0,0,1,.814.815v1.945a.377.377,0,0,1-.377.377ZM8.622,58.6h4.132V57.031a.061.061,0,0,0-.06-.061H8.682a.061.061,0,0,0-.06.061Z" transform="translate(-5.656 -35.777)" fill="#05f" stroke="#05f" stroke-width="0.5"/>
      <path id="Path_16187" data-name="Path 16187" d="M28.012,66.1H2.377A.377.377,0,0,1,2,65.727V62.913a.377.377,0,0,1,.377-.377H28.012a.377.377,0,0,1,.377.377v2.814A.377.377,0,0,1,28.012,66.1ZM2.754,65.35H27.635V63.29H2.754Z" transform="translate(-2 -39.715)" fill="#05f" stroke="#05f" stroke-width="0.5"/>
    </g>
  </g>
</svg>
