<svg xmlns="http://www.w3.org/2000/svg" xmlns:xlink="http://www.w3.org/1999/xlink" width="130.691" height="131.809" viewBox="0 0 130.691 131.809">
  <defs>
    <linearGradient id="linear-gradient" x1="0.289" y1="-0.794" x2="0.729" y2="2.105" gradientUnits="objectBoundingBox">
      <stop offset="0" stop-color="#efeff4"/>
      <stop offset="1" stop-color="#fff"/>
    </linearGradient>
    <linearGradient id="linear-gradient-2" x1="0.436" y1="-0.029" x2="0.948" y2="2.185" xlink:href="#linear-gradient"/>
    <linearGradient id="linear-gradient-3" x1="0.15" y1="0.882" x2="1.303" y2="-0.612" gradientUnits="objectBoundingBox">
      <stop offset="0" stop-color="#fff"/>
      <stop offset="1" stop-color="#efeff4"/>
    </linearGradient>
    <linearGradient id="linear-gradient-4" x1="-1.956" y1="2.769" x2="1.463" y2="-0.324" xlink:href="#linear-gradient-3"/>
    <linearGradient id="linear-gradient-5" x1="1.165" y1="0.119" x2="-0.249" y2="1.098" xlink:href="#linear-gradient-3"/>
    <linearGradient id="linear-gradient-6" x1="59.338" y1="-0.104" x2="61.135" y2="-0.104" xlink:href="#linear-gradient"/>
    <linearGradient id="linear-gradient-7" x1="0.362" y1="1.134" x2="0.912" y2="-0.937" gradientUnits="objectBoundingBox">
      <stop offset="0" stop-color="#fff"/>
      <stop offset="0.161" stop-color="#fcfcfd"/>
      <stop offset="1" stop-color="#efeff4"/>
    </linearGradient>
    <linearGradient id="linear-gradient-8" x1="37.628" y1="61.545" x2="37.305" y2="60.479" xlink:href="#linear-gradient-3"/>
    <linearGradient id="linear-gradient-9" x1="121.224" y1="293.711" x2="120.277" y2="289.098" xlink:href="#linear-gradient-3"/>
    <linearGradient id="linear-gradient-10" x1="187.403" y1="0.5" x2="188.403" y2="0.5" xlink:href="#linear-gradient-3"/>
  </defs>
  <g id="Group_14012" data-name="Group 14012" transform="translate(-335 -327.172)">
    <path id="Path_18426" data-name="Path 18426" d="M459.983,415.766c-12.6,29.678-46.179,46.3-75.3,41.819-4.738-.73-17.727-2.9-29.227-13.159-22.138-19.742-26.872-58.835-9.014-86.385a68.882,68.882,0,0,1,58.436-30.849c4.769.122,23.044.877,39.106,14.121a60.232,60.232,0,0,1,12.251,13.9C467.251,372.434,468.2,396.424,459.983,415.766Z" transform="translate(-0.479 0)" fill="#efeff4"/>
    <g id="Group_13992" data-name="Group 13992" transform="translate(350.237 332.408)">
      <g id="Group_13985" data-name="Group 13985" transform="translate(0 12.928)">
        <g id="Group_13980" data-name="Group 13980">
          <path id="Path_18427" data-name="Path 18427" d="M593.564,587.461a.722.722,0,0,1-1,.192c-.641-.435-1.311-.849-1.991-1.229a.722.722,0,0,1-.284-.971l.007-.012a.722.722,0,0,1,.983-.277c.715.4,1.421.836,2.1,1.294a.723.723,0,0,1,.192,1Zm-6.43-2.663c-.725-.284-1.469-.54-2.212-.761a.722.722,0,1,1,.411-1.384c.782.232,1.565.5,2.328.8a.722.722,0,0,1,.409.936.737.737,0,0,1-.036.078A.722.722,0,0,1,587.134,584.8Zm-5.92-1.587c-.768-.116-1.55-.2-2.325-.248a.722.722,0,0,1,.091-1.442c.817.052,1.64.14,2.449.261a.722.722,0,1,1-.215,1.428Zm-6.126-.223c-.775.059-1.557.153-2.323.278a.722.722,0,1,1-.233-1.426c.807-.132,1.63-.23,2.446-.292a.722.722,0,0,1,.11,1.44Zm-6.023,1.147c-.741.229-1.483.493-2.2.786a.722.722,0,1,1-.542-1.339c.759-.307,1.54-.585,2.319-.826a.722.722,0,0,1,.427,1.38Zm-5.619,2.451c-.673.388-1.337.81-1.975,1.253a.722.722,0,0,1-.825-1.186c.671-.467,1.371-.911,2.079-1.319a.722.722,0,1,1,.721,1.251ZM549.032,609.2a.722.722,0,0,1-.674-.768c.053-.815.143-1.64.266-2.449a.722.722,0,0,1,1.428.218c-.117.769-.2,1.552-.252,2.326a.721.721,0,0,1-.768.674Zm9.482-18.983c-.569.528-1.123,1.086-1.645,1.661a.722.722,0,1,1-1.069-.971c.55-.605,1.133-1.193,1.732-1.749a.722.722,0,1,1,.982,1.06Zm-8.527,12.761a.722.722,0,0,1-.485-.9c.234-.783.506-1.566.806-2.327a.722.722,0,0,1,1.344.53c-.285.724-.543,1.468-.766,2.212a.723.723,0,0,1-.9.485Zm4.531-8.117c-.437.641-.852,1.31-1.233,1.988a.722.722,0,0,1-1.266-.695l.007-.013c.4-.714.838-1.418,1.3-2.093a.722.722,0,0,1,1.234.747C554.545,594.82,554.531,594.842,554.517,594.864Z" transform="translate(-548.356 -581.52)" fill="#c6c9d3"/>
          <path id="Path_18428" data-name="Path 18428" d="M550.1,1006.064a.719.719,0,0,0,.08-.424c-.043-.37-.079-.747-.108-1.12a.722.722,0,1,0-1.44.109c.03.393.068.789.113,1.179a.722.722,0,0,0,1.354.257Z" transform="translate(-548.612 -973.69)" fill="#c6c9d3"/>
        </g>
        <g id="Group_13981" data-name="Group 13981" transform="translate(10.115 23.549)">
          <path id="Path_18429" data-name="Path 18429" d="M692.253,1279.651a.723.723,0,0,0-.2-.915c-.3-.225-.593-.461-.881-.7a.722.722,0,1,0-.921,1.112c.3.251.616.5.928.737a.723.723,0,0,0,1.074-.235Z" transform="translate(-689.989 -1251.689)" fill="#c6c9d3"/>
          <path id="Path_18430" data-name="Path 18430" d="M786.8,996.331a.722.722,0,1,1-1.239-.743c.391-.651.76-1.329,1.1-2.022a.722.722,0,0,1,1.3.639q-.222.451-.457.89C787.273,995.512,787.038,995.928,786.8,996.331Zm1.741-5.311a.722.722,0,0,1-.456-.914c.242-.726.457-1.471.637-2.213a.722.722,0,1,1,1.4.341c-.19.781-.415,1.565-.67,2.329a.734.734,0,0,1-.049.113A.722.722,0,0,1,788.537,991.019Zm-3.993,8.539c-.5.626-1.041,1.239-1.6,1.822a.722.722,0,1,1-1.045-1c.529-.553,1.039-1.136,1.517-1.73a.722.722,0,0,1,1.2.793A.73.73,0,0,1,784.544,999.559ZM789.995,985a.722.722,0,0,1-.646-.791c.077-.761.122-1.534.135-2.3a.722.722,0,0,1,1.444.023c-.013.8-.061,1.619-.142,2.42a.721.721,0,0,1-.791.646Zm-9.953,19.033c-.629.5-1.288.979-1.959,1.426a.722.722,0,0,1-.8-1.2c.637-.424,1.263-.88,1.86-1.354a.722.722,0,1,1,.9,1.131Zm-5.374,3.377c-.725.351-1.472.675-2.222.964a.722.722,0,1,1-.519-1.348c.713-.275,1.423-.583,2.112-.916a.722.722,0,1,1,.63,1.3Zm-5.983,2.126c-.784.185-1.585.339-2.379.457a.722.722,0,0,1-.213-1.429c.755-.112,1.516-.259,2.261-.435a.722.722,0,0,1,.332,1.406Zm-6.3.77c-.805.009-1.621-.016-2.423-.076a.722.722,0,1,1,.106-1.44c.762.056,1.536.08,2.3.072a.722.722,0,0,1,.016,1.444Zm-6.323-.634c-.786-.168-1.575-.372-2.345-.607a.722.722,0,0,1,.42-1.382c.732.223,1.481.417,2.228.577a.722.722,0,1,1-.3,1.412Zm-6.023-2c-.538-.247-1.075-.514-1.6-.793q-.283-.152-.561-.308a.714.714,0,0,1-.274-.984.722.722,0,0,1,.984-.275q.264.149.534.293c.5.265,1.006.519,1.517.754a.722.722,0,0,1,.355.958c-.006.013-.013.027-.02.04A.722.722,0,0,1,750.035,1007.667Z" transform="translate(-743.398 -976.206)" fill="#c6c9d3"/>
          <path id="Path_18431" data-name="Path 18431" d="M1331.682,913.476a.719.719,0,0,0,.08-.427c-.047-.388-.1-.783-.168-1.173a.722.722,0,1,0-1.425.233c.061.37.114.745.159,1.114a.722.722,0,0,0,1.354.253Z" transform="translate(-1284.442 -911.27)" fill="#c6c9d3"/>
        </g>
        <g id="Group_13984" data-name="Group 13984" transform="translate(7.618 7.738)">
          <g id="Group_13982" data-name="Group 13982">
            <path id="Path_18432" data-name="Path 18432" d="M695.029,700.247a.337.337,0,0,0-.333-.207l-4.1.258a17.9,17.9,0,0,0-4.107-4.092l.24-4.1a.338.338,0,0,0-.208-.332l-4.557-1.876a.337.337,0,0,0-.382.089l-2.715,3.08a17.9,17.9,0,0,0-5.8.015l-2.73-3.07a.338.338,0,0,0-.382-.087l-4.549,1.9a.338.338,0,0,0-.207.333l.258,4.1a17.9,17.9,0,0,0-4.093,4.107l-4.1-.24a.337.337,0,0,0-.332.208l-1.876,4.557a.337.337,0,0,0,.089.382l3.08,2.715a17.9,17.9,0,0,0,.015,5.8l-3.07,2.73a.337.337,0,0,0-.087.382l1.9,4.549a.338.338,0,0,0,.333.207l4.1-.258a17.894,17.894,0,0,0,4.107,4.093l-.24,4.1a.337.337,0,0,0,.208.332l4.557,1.876a.338.338,0,0,0,.382-.089l2.715-3.08a17.9,17.9,0,0,0,5.8-.014l2.73,3.07a.337.337,0,0,0,.382.087l4.549-1.9a.338.338,0,0,0,.207-.333l-.258-4.1a17.9,17.9,0,0,0,4.093-4.107l4.1.24a.338.338,0,0,0,.332-.208l1.876-4.557a.337.337,0,0,0-.089-.382l-3.08-2.715a17.9,17.9,0,0,0-.015-5.8l3.07-2.73a.338.338,0,0,0,.087-.382Z" transform="translate(-655.033 -689.873)" fill="#ff5929"/>
          </g>
          <g id="Group_13983" data-name="Group 13983" transform="translate(16.017 16.02)">
            <path id="Path_18433" data-name="Path 18433" d="M888.245,922.094a4.951,4.951,0,1,1,.389-.615A4.959,4.959,0,0,1,888.245,922.094Zm-7.736-2.391a3.8,3.8,0,1,0,.705-2.82,3.836,3.836,0,0,0-.3.476A3.77,3.77,0,0,0,880.508,919.7Z" transform="translate(-879.31 -914.193)" fill="#3275b9"/>
          </g>
          <path id="Path_18434" data-name="Path 18434" d="M799.563,831.378a12.426,12.426,0,0,0,.534-1.132h0q.076-.183.145-.369a12.248,12.248,0,0,0,.537-1.875l.005-.026.014-.074c.009-.048.018-.1.027-.144a.289.289,0,0,0-.148-.306.292.292,0,0,0-.086-.03.289.289,0,0,0-.335.233,11.615,11.615,0,0,1-9.4,9.375,11.531,11.531,0,0,1-6.441-.693,11.79,11.79,0,0,1-1.08-.51,11.6,11.6,0,1,1,14.8-17.159.289.289,0,1,0,.463-.345,12.181,12.181,0,1,0-15.534,18.013,12.466,12.466,0,0,0,1.133.535,12.182,12.182,0,0,0,15.366-5.494Z" transform="translate(-767.962 -804.605)" fill="#3275b9"/>
        </g>
      </g>
      <g id="Group_13991" data-name="Group 13991" transform="translate(41.728 0)">
        <g id="Group_13986" data-name="Group 13986">
          <path id="Path_18435" data-name="Path 18435" d="M1558.2,466.927a.446.446,0,0,0-.081-.528c-.27-.266-.552-.527-.837-.776a.446.446,0,0,0-.586.672c.272.237.541.486.8.739a.446.446,0,0,0,.631-.005A.453.453,0,0,0,1558.2,466.927Z" transform="translate(-1526.273 -460.87)" fill="#c6c9d3"/>
          <path id="Path_18436" data-name="Path 18436" d="M1161.9,404.422a.446.446,0,0,1-.619.12,18.541,18.541,0,0,0-1.6-.966q-.173-.093-.35-.182a.446.446,0,0,1-.2-.6.462.462,0,0,1,.6-.2q.185.094.366.191a19.37,19.37,0,0,1,1.681,1.013.446.446,0,0,1,.144.58C1161.914,404.4,1161.906,404.409,1161.9,404.422Zm-4.651-1.93a18.485,18.485,0,0,0-2.172-.642.446.446,0,1,1,.2-.87,19.349,19.349,0,0,1,2.277.673.446.446,0,0,1-.3.839Zm-4.407-1.01a18.323,18.323,0,0,0-2.264-.088.446.446,0,0,1-.021-.892,19.254,19.254,0,0,1,2.374.092.446.446,0,0,1-.09.888Zm-4.521.1a18.4,18.4,0,0,0-2.216.468.446.446,0,0,1-.238-.86,19.355,19.355,0,0,1,2.324-.491.446.446,0,0,1,.13.883Zm-4.359,1.2a18.589,18.589,0,0,0-2.036.992.446.446,0,0,1-.439-.777,19.535,19.535,0,0,1,2.134-1.04.446.446,0,0,1,.341.825Zm-3.934,2.226a18.318,18.318,0,0,0-1.73,1.458.446.446,0,0,1-.616-.645,19.208,19.208,0,0,1,1.815-1.529.446.446,0,0,1,.531.717Zm-3.269,3.119a18.33,18.33,0,0,0-1.321,1.84.446.446,0,0,1-.756-.475,19.356,19.356,0,0,1,1.385-1.929.446.446,0,0,1,.739.492A.441.441,0,0,1,1136.757,408.136Zm-3.8,6.22a.446.446,0,0,1-.286-.562,19.41,19.41,0,0,1,.745-1.924c.042-.1.086-.19.13-.285a.442.442,0,0,1,.594-.214.446.446,0,0,1,.214.594c-.042.088-.083.177-.123.269a18.538,18.538,0,0,0-.712,1.837.439.439,0,0,1-.031.072A.446.446,0,0,1,1132.955,414.357Z" transform="translate(-1132.647 -400.497)" fill="#c6c9d3"/>
        </g>
        <g id="Group_13987" data-name="Group 13987" transform="translate(17.397 15.796)">
          <path id="Path_18437" data-name="Path 18437" d="M1394.053,678.762a19.456,19.456,0,0,1-1.25,1.972.446.446,0,0,1-.723-.523,18.426,18.426,0,0,0,1.192-1.881.446.446,0,0,1,.784.426Zm.423-1.864a.446.446,0,0,1-.246-.581,18.682,18.682,0,0,0,.711-2.113.446.446,0,0,1,.861.233,19.527,19.527,0,0,1-.745,2.214.455.455,0,0,1-.021.044A.446.446,0,0,1,1394.477,676.9Zm-3.155,5.643a19.39,19.39,0,0,1-1.69,1.612.446.446,0,0,1-.576-.682,18.494,18.494,0,0,0,1.613-1.538.446.446,0,1,1,.653.607Zm4.447-10.014a.446.446,0,0,1-.379-.5,18.314,18.314,0,0,0,.179-2.221.446.446,0,1,1,.892.017,19.136,19.136,0,0,1-.188,2.33.446.446,0,0,1-.5.379Zm-8.01,13.02a19.416,19.416,0,0,1-2.028,1.158.446.446,0,0,1-.395-.8,18.341,18.341,0,0,0,1.934-1.1.446.446,0,0,1,.489.747Zm-4.181,2.064a19.487,19.487,0,0,1-2.246.64.446.446,0,0,1-.192-.871,18.646,18.646,0,0,0,2.143-.611.446.446,0,1,1,.3.842Zm-4.555,1a19.27,19.27,0,0,1-2.335.082.446.446,0,0,1,.023-.892,18.23,18.23,0,0,0,2.227-.078.446.446,0,0,1,.487.4.439.439,0,0,1-.051.253A.446.446,0,0,1,1379.023,688.615Z" transform="translate(-1376.253 -665.958)" fill="#c6c9d3"/>
          <path id="Path_18438" data-name="Path 18438" d="M1644.31,623.435a.444.444,0,0,0,.05-.256c-.039-.38-.09-.76-.151-1.13a.446.446,0,1,0-.881.144c.058.353.106.716.144,1.078a.446.446,0,0,0,.837.164Z" transform="translate(-1624.25 -621.674)" fill="#c6c9d3"/>
        </g>
        <g id="Group_13990" data-name="Group 13990" transform="translate(4.17 5.178)">
          <g id="Group_13988" data-name="Group 13988">
            <path id="Path_18439" data-name="Path 18439" d="M1217.8,479.946a.226.226,0,0,0-.223-.139l-2.744.172a11.975,11.975,0,0,0-2.748-2.738l.161-2.743a.226.226,0,0,0-.14-.222l-3.049-1.255a.225.225,0,0,0-.255.059l-1.817,2.061a11.974,11.974,0,0,0-3.88.01l-1.827-2.054a.226.226,0,0,0-.256-.058l-3.044,1.269a.226.226,0,0,0-.139.223l.172,2.744a11.975,11.975,0,0,0-2.738,2.749l-2.743-.161a.226.226,0,0,0-.222.139l-1.255,3.049a.226.226,0,0,0,.059.255l2.061,1.817a11.974,11.974,0,0,0,.01,3.88l-2.054,1.827a.225.225,0,0,0-.058.256l1.268,3.044a.226.226,0,0,0,.223.138l2.744-.172a11.971,11.971,0,0,0,2.748,2.738l-.16,2.743a.226.226,0,0,0,.139.222l3.049,1.255a.226.226,0,0,0,.255-.06l1.817-2.061a11.976,11.976,0,0,0,3.88-.01l1.827,2.054a.226.226,0,0,0,.256.058l3.044-1.268a.226.226,0,0,0,.139-.223l-.173-2.744a11.969,11.969,0,0,0,2.739-2.749l2.743.161a.226.226,0,0,0,.222-.14l1.255-3.049a.226.226,0,0,0-.06-.255l-2.061-1.817a11.974,11.974,0,0,0-.01-3.88l2.054-1.827a.226.226,0,0,0,.058-.256Z" transform="translate(-1191.034 -473.004)" fill="#ff5929"/>
          </g>
          <g id="Group_13989" data-name="Group 13989" transform="translate(10.661 10.66)">
            <path id="Path_18440" data-name="Path 18440" d="M1346.4,627.657a3.362,3.362,0,1,1,.268-.422A3.462,3.462,0,0,1,1346.4,627.657Zm-4.189-.015a2.481,2.481,0,0,0,3.472-.516h0a2.482,2.482,0,0,0-3.988-2.956,2.52,2.52,0,0,0-.195.308A2.486,2.486,0,0,0,1342.207,627.642Z" transform="translate(-1340.313 -622.275)" fill="#3275b9"/>
          </g>
          <path id="Path_18441" data-name="Path 18441" d="M1284.685,564.456q.2-.373.365-.773a8.452,8.452,0,0,0,.489-1.641l.014-.076a.446.446,0,0,0-.228-.472.453.453,0,0,0-.132-.046.447.447,0,0,0-.518.36,7.532,7.532,0,0,1-.449,1.535h0l-.034.081a7.438,7.438,0,0,1-2.222,2.931,7.547,7.547,0,0,1-1.738,1.035l-.015.007-.047.02a7.462,7.462,0,0,1-5.749.012,7.612,7.612,0,0,1-.7-.33,7.512,7.512,0,1,1,9.579-11.109.446.446,0,0,0,.624.091.446.446,0,0,0,.091-.624,8.4,8.4,0,1,0-10.717,12.427,8.576,8.576,0,0,0,.782.369A8.415,8.415,0,0,0,1284.685,564.456Z" transform="translate(-1263.313 -546.43)" fill="#3275b9"/>
        </g>
      </g>
    </g>
    <path id="Rectangle_17720" data-name="Rectangle 17720" d="M10.4,0H13.61A6.788,6.788,0,0,1,20.4,6.788V36.08a0,0,0,0,1,0,0H0a0,0,0,0,1,0,0V10.4A10.4,10.4,0,0,1,10.4,0Z" transform="translate(363.196 422.297)" fill="#3275b9"/>
    <path id="Rectangle_17721" data-name="Rectangle 17721" d="M8.579,0H12.73A7.668,7.668,0,0,1,20.4,7.668V55.986a0,0,0,0,1,0,0H0a0,0,0,0,1,0,0V8.579A8.579,8.579,0,0,1,8.579,0Z" transform="translate(388.448 402.391)" fill="#3275b9"/>
    <path id="Rectangle_17722" data-name="Rectangle 17722" d="M11.915,0h0A8.483,8.483,0,0,1,20.4,8.483V74.357a0,0,0,0,1,0,0H0a0,0,0,0,1,0,0V11.915A11.915,11.915,0,0,1,11.915,0Z" transform="translate(414.044 383.997)" fill="#3275b9"/>
    <path id="Rectangle_17723" data-name="Rectangle 17723" d="M10.569,0h0A9.829,9.829,0,0,1,20.4,9.829V95.162a0,0,0,0,1,0,0H0a0,0,0,0,1,0,0V10.569A10.569,10.569,0,0,1,10.569,0Z" transform="translate(439.97 363.192)" fill="#3275b9"/>
    <g id="Group_13998" data-name="Group 13998" transform="translate(335 381.733)">
      <path id="Path_18442" data-name="Path 18442" d="M554.617,2110.464s-.284,1.521-.43,3.028a1.039,1.039,0,0,0,.983,1.135c2.008.1,6.3.306,7.844.252a.338.338,0,0,0,.3-.46.756.756,0,0,0-.383-.411l-7.065-3.329Z" transform="translate(-538.529 -2037.67)" fill="#48494b"/>
      <path id="Path_18443" data-name="Path 18443" d="M557.3,2094.463l.2,1.824a2.261,2.261,0,0,0,2.093-.053l-.5-2.036Z" transform="translate(-541.428 -2022.566)" fill="url(#linear-gradient)"/>
      <path id="Path_18444" data-name="Path 18444" d="M490.556,1617.531c-.1.475-.728,23.744,1.66,34.2a.354.354,0,0,1-.212.41,6.162,6.162,0,0,1-2.03.392.61.61,0,0,1-.6-.443c-.688-2.427-3.98-14.583-4.314-26.168-.373-12.946,0-.441,0-.441l.368-8Z" transform="translate(-474.191 -1579.894)" fill="#b7d4e7"/>
      <path id="Path_18445" data-name="Path 18445" d="M434.364,2120.5a10.972,10.972,0,0,0-.87,2.8.635.635,0,0,0,.551.765c.663.071,1.683.165,2.5.167a.632.632,0,0,0,.633-.7,5.329,5.329,0,0,0-1.217-2.936Z" transform="translate(-426.447 -2046.992)" fill="#48494b"/>
      <path id="Path_18446" data-name="Path 18446" d="M440.906,2086.458l.479,2.76a1.782,1.782,0,0,0,1.487.116l-.213-2.968Z" transform="translate(-433.343 -2015.294)" fill="url(#linear-gradient-2)"/>
      <path id="Path_18447" data-name="Path 18447" d="M414.557,1611.363c-2.152,12.26.152,30.353.953,33.9a.551.551,0,0,0,.441.423,3.7,3.7,0,0,0,1.592-.048.506.506,0,0,0,.368-.462c.139-2.858.105-20.413,2.067-27.332a1.579,1.579,0,0,1,.616-.864l3.7-2.581.322-4.225Z" transform="translate(-408.044 -1573.106)" fill="#b7d4e7"/>
      <g id="Group_13993" data-name="Group 13993" transform="translate(5.841 5.691)">
        <path id="Path_18448" data-name="Path 18448" d="M430.642,1290.623a57.322,57.322,0,0,0-12.84,1.479c-1.919,10.588-.536,22.834-.536,22.834,4.709,1.283,10.052-.661,10.052-.661.827-4.425,4.606-16.865,4.606-16.865a20.084,20.084,0,0,0,7.477-2.294,13.075,13.075,0,0,1-2.532-5.43A20.465,20.465,0,0,1,430.642,1290.623Z" transform="translate(-416.784 -1281.199)" fill="#3275b9"/>
        <path id="Path_18449" data-name="Path 18449" d="M709.9,1171.469a1.325,1.325,0,0,0-1.2-.607c-.933,3.782-5.82,7.023-10.668,8.479a13.074,13.074,0,0,0,2.532,5.429C708.627,1180.336,709.9,1171.469,709.9,1171.469Z" transform="translate(-677.945 -1170.854)" fill="url(#linear-gradient-3)"/>
      </g>
      <g id="Group_13994" data-name="Group 13994" transform="translate(36.455 0)">
        <path id="Path_18450" data-name="Path 18450" d="M846.656,1097.651c.061.2-.668.5-1.087-.323a7.675,7.675,0,0,1,0-2.382,31.169,31.169,0,0,1,3.689-3.784.573.573,0,0,1,.064.8l-1.181,1.207a5.66,5.66,0,0,1,.67,1.356,1.639,1.639,0,0,1-.175,1.2c-.209.368-.493.845-.762,1.219A1.618,1.618,0,0,1,846.656,1097.651Z" transform="translate(-845.464 -1091.163)" fill="url(#linear-gradient-4)"/>
        <path id="Path_18451" data-name="Path 18451" d="M857.318,1130.219l-1.074.893-.343.9.94,1.063a12.255,12.255,0,0,1,.577-2.165C857.659,1130.522,857.538,1130.334,857.318,1130.219Z" transform="translate(-855.156 -1127.43)" fill="url(#linear-gradient-5)"/>
      </g>
      <path id="Path_18452" data-name="Path 18452" d="M346,1329.441l-2.282-5.926s-5.732,3.815-6.716,8.713a13.483,13.483,0,0,1,4.938,1.374C342.384,1331.289,346,1329.441,346,1329.441Z" transform="translate(-336.859 -1306.921)" fill="#3275b9"/>
      <path id="Path_18453" data-name="Path 18453" d="M349.065,1448.331s-6.429,3.553-8.557.446a2.425,2.425,0,0,1-.427-1.889,13.481,13.481,0,0,0-4.938-1.374,6.772,6.772,0,0,0,.692,4.649c3.713,6.949,14.061-.248,14.061-.248Z" transform="translate(-335 -1420.208)" fill="url(#linear-gradient-6)"/>
      <path id="Path_18454" data-name="Path 18454" d="M498.935,1232.673l-1.994,5.592a.2.2,0,0,0,.09.244,4.561,4.561,0,0,0,4.733-.273.952.952,0,0,0,.445-.676l.674-4.85Z" transform="translate(-485.366 -1222.567)" fill="url(#linear-gradient-7)"/>
      <g id="Group_13995" data-name="Group 13995" transform="translate(9.908 2.033)">
        <path id="Path_18455" data-name="Path 18455" d="M519.973,1160.487s2.092,4.031,1.8,5.648-2.928,1.476-5.221.138l-1.57-4.346Z" transform="translate(-512.04 -1157.57)" fill="url(#linear-gradient-8)"/>
        <path id="Path_18456" data-name="Path 18456" d="M478.369,1126.214a.165.165,0,0,0,.074-.241,4.314,4.314,0,0,1-.581-1.264s-.381-.249.98-.561,3.39-.8,3.827-1.949c.426-1.123-.638-3.967-2.4-1.726a.165.165,0,0,1-.262,0,1.7,1.7,0,0,0-2.069-.694,1.563,1.563,0,0,0-1.085,1.5.164.164,0,0,1-.2.167,1.906,1.906,0,0,0-2.236,1.016,1.533,1.533,0,0,0,.092,1.841.165.165,0,0,1-.073.273.992.992,0,0,0-.71,1.125c.048,1.049,1.221.968,1.555.923a.166.166,0,0,1,.146.053,5.634,5.634,0,0,0,2.953,1.851.167.167,0,0,0,.177-.219l-.587-1.761a.166.166,0,0,1,.092-.2Z" transform="translate(-473.731 -1119.636)" fill="#333435"/>
        <path id="Path_18457" data-name="Path 18457" d="M520.811,1208.409s-1.507-1.055-1.626-.18,1.354,1.283,2.088.963Z" transform="translate(-515.932 -1201.58)" fill="url(#linear-gradient-9)"/>
      </g>
      <g id="Group_13997" data-name="Group 13997" transform="translate(12.737 20.492)">
        <g id="Group_13996" data-name="Group 13996">
          <path id="Path_18458" data-name="Path 18458" d="M513.363,1391.342l3.5-12.23a.357.357,0,0,1,.3-.257c.635-.074,2.473-.282,4.6-.461a52.157,52.157,0,0,1,7.3-.242.358.358,0,0,1,.293.515c-1.009,2.042-5.16,10.345-7.238,13.066a.359.359,0,0,1-.289.142l-8.125-.076A.358.358,0,0,1,513.363,1391.342Z" transform="translate(-513.349 -1378.096)" fill="#5c5e61"/>
          <path id="Path_18459" data-name="Path 18459" d="M521,1467.981a8.9,8.9,0,0,1-.291-2.718c.2-.711.578-1.627,1.849-1.423a18.6,18.6,0,0,1,2.77.739.727.727,0,0,1-1.042.628l.6.463s-.086.742-.9.346l.557.615a.649.649,0,0,1-.951.219C522.991,1466.458,522.7,1468.223,521,1467.981Z" transform="translate(-520.141 -1457.69)" fill="url(#linear-gradient-10)"/>
        </g>
        <path id="Path_18460" data-name="Path 18460" d="M627.89,1420.022a1.028,1.028,0,1,0,1.028-1.028A1.028,1.028,0,0,0,627.89,1420.022Z" transform="translate(-619.71 -1416.073)" fill="#74767b"/>
        <path id="Path_18461" data-name="Path 18461" d="M564.612,1392.826l.713-2.419a.821.821,0,0,1,.616-.575,71.634,71.634,0,0,1,8.412-.566l0-.292a70.112,70.112,0,0,0-8.467.572,1.113,1.113,0,0,0-.837.779l-.713,2.419Z" transform="translate(-560.691 -1388.197)" fill="#74767b"/>
      </g>
    </g>
    <g id="Group_14003" data-name="Group 14003" transform="translate(419.624 404.534)">
      <g id="Group_14002" data-name="Group 14002" transform="translate(0 0)">
        <g id="Group_13999" data-name="Group 13999">
          <path id="Path_18462" data-name="Path 18462" d="M1520.7,1413.208c-.243,8.662-1.029,38.539-.654,49.127a2.276,2.276,0,0,0,2.322,2.059c6.266.182,29.237.642,39.486.261a3.822,3.822,0,0,0,3.877-3.5c.213-9.092.683-34.663-.434-46.377a3.122,3.122,0,0,0-2.961-2.661c-6.824-.6-29.894-2.082-38.749-1.573A2.913,2.913,0,0,0,1520.7,1413.208Z" transform="translate(-1519.949 -1410.437)" fill="#333435"/>
          <path id="Path_18478" data-name="Path 18478" d="M2.549,0H37.62a2.549,2.549,0,0,1,2.549,2.549v7.34a2.549,2.549,0,0,1-2.549,2.549H2.549A2.549,2.549,0,0,1,0,9.889V2.549A2.549,2.549,0,0,1,2.549,0Z" transform="translate(2.553 4.041)" fill="#3275b9"/>
          <path id="Path_18463" data-name="Path 18463" d="M1620.07,1488.686a1.68,1.68,0,0,0-1.181-.512l-32.817-.521a1.68,1.68,0,0,0-1.7,1.523l-.682,7.281c-.056.6.925,1.1,2.175,1.113l32.263.391c1.249.015,2.281-.461,2.291-1.057l.122-7.021A1.68,1.68,0,0,0,1620.07,1488.686Z" transform="translate(-1579.137 -1482.139)" fill="#90ccd6"/>
        </g>
        <path id="Path_18464" data-name="Path 18464" d="M1580.376,1714.909a2.345,2.345,0,0,1-2.345,2.345h-2.855a2.345,2.345,0,0,1-2.345-2.345h0a2.345,2.345,0,0,1,2.345-2.345h2.855a2.345,2.345,0,0,1,2.345,2.345Z" transform="translate(-1569.055 -1690.987)" fill="#979aa0"/>
        <path id="Path_18465" data-name="Path 18465" d="M1728.843,1714.909a2.345,2.345,0,0,1-2.345,2.345h-2.855a2.345,2.345,0,0,1-2.345-2.345h0a2.345,2.345,0,0,1,2.345-2.345h2.855a2.345,2.345,0,0,1,2.345,2.345Z" transform="translate(-1706.919 -1690.987)" fill="#979aa0"/>
        <path id="Path_18466" data-name="Path 18466" d="M1871.6,1714.909a2.345,2.345,0,0,1-2.345,2.345H1866.4a2.345,2.345,0,0,1-2.345-2.345h0a2.345,2.345,0,0,1,2.345-2.345h2.855a2.345,2.345,0,0,1,2.345,2.345Z" transform="translate(-1839.481 -1690.987)" fill="#979aa0"/>
        <path id="Path_18467" data-name="Path 18467" d="M2016.566,1719.236a2.383,2.383,0,0,1-2.383,2.383h-2.759a2.383,2.383,0,0,1-2.383-2.383h0a2.383,2.383,0,0,1,2.383-2.383h2.759a2.383,2.383,0,0,1,2.383,2.383Z" transform="translate(-1974.112 -1694.97)" fill="#90ccd6"/>
        <path id="Path_18468" data-name="Path 18468" d="M1580.376,1817.694a2.345,2.345,0,0,1-2.345,2.345h-2.855a2.345,2.345,0,0,1-2.345-2.345h0a2.345,2.345,0,0,1,2.345-2.345h2.855a2.345,2.345,0,0,1,2.345,2.345Z" transform="translate(-1569.055 -1786.432)" fill="#979aa0"/>
        <path id="Path_18469" data-name="Path 18469" d="M1728.843,1817.694a2.345,2.345,0,0,1-2.345,2.345h-2.855a2.345,2.345,0,0,1-2.345-2.345h0a2.345,2.345,0,0,1,2.345-2.345h2.855a2.345,2.345,0,0,1,2.345,2.345Z" transform="translate(-1706.919 -1786.432)" fill="#979aa0"/>
        <path id="Path_18470" data-name="Path 18470" d="M1871.6,1817.694a2.345,2.345,0,0,1-2.345,2.345H1866.4a2.345,2.345,0,0,1-2.345-2.345h0a2.345,2.345,0,0,1,2.345-2.345h2.855a2.345,2.345,0,0,1,2.345,2.345Z" transform="translate(-1839.481 -1786.432)" fill="#979aa0"/>
        <path id="Path_18471" data-name="Path 18471" d="M2020.066,1817.694a2.345,2.345,0,0,1-2.345,2.345h-2.855a2.345,2.345,0,0,1-2.345-2.345h0a2.345,2.345,0,0,1,2.345-2.345h2.855a2.345,2.345,0,0,1,2.345,2.345Z" transform="translate(-1977.344 -1786.432)" fill="#979aa0"/>
        <g id="Group_14000" data-name="Group 14000" transform="translate(3.777 35.418)">
          <path id="Path_18472" data-name="Path 18472" d="M1580.376,1908.724a2.345,2.345,0,0,1-2.345,2.345h-2.855a2.345,2.345,0,0,1-2.345-2.345h0a2.345,2.345,0,0,1,2.345-2.345h2.855a2.345,2.345,0,0,1,2.345,2.345Z" transform="translate(-1572.832 -1906.379)" fill="#888b8f" opacity="0.63"/>
          <path id="Path_18473" data-name="Path 18473" d="M1728.843,1908.724a2.345,2.345,0,0,1-2.345,2.345h-2.855a2.345,2.345,0,0,1-2.345-2.345h0a2.345,2.345,0,0,1,2.345-2.345h2.855a2.345,2.345,0,0,1,2.345,2.345Z" transform="translate(-1710.695 -1906.379)" fill="#888b8f" opacity="0.63"/>
          <path id="Path_18474" data-name="Path 18474" d="M1871.6,1908.724a2.345,2.345,0,0,1-2.345,2.345H1866.4a2.345,2.345,0,0,1-2.345-2.345h0a2.345,2.345,0,0,1,2.345-2.345h2.855a2.345,2.345,0,0,1,2.345,2.345Z" transform="translate(-1843.257 -1906.379)" fill="#888b8f" opacity="0.63"/>
        </g>
        <g id="Group_14001" data-name="Group 14001" transform="translate(3.777 42.555)">
          <path id="Path_18475" data-name="Path 18475" d="M1580.376,2008.653a2.345,2.345,0,0,1-2.345,2.345h-2.855a2.345,2.345,0,0,1-2.345-2.345h0a2.345,2.345,0,0,1,2.345-2.345h2.855a2.345,2.345,0,0,1,2.345,2.345Z" transform="translate(-1572.832 -2006.308)" fill="#979aa0"/>
          <path id="Path_18476" data-name="Path 18476" d="M1728.843,2008.653A2.345,2.345,0,0,1,1726.5,2011h-2.855a2.345,2.345,0,0,1-2.345-2.345h0a2.345,2.345,0,0,1,2.345-2.345h2.855a2.345,2.345,0,0,1,2.345,2.345Z" transform="translate(-1710.695 -2006.308)" fill="#979aa0"/>
          <path id="Path_18477" data-name="Path 18477" d="M1871.6,2008.653a2.345,2.345,0,0,1-2.345,2.345H1866.4a2.345,2.345,0,0,1-2.345-2.345h0a2.345,2.345,0,0,1,2.345-2.345h2.855a2.345,2.345,0,0,1,2.345,2.345Z" transform="translate(-1843.257 -2006.308)" fill="#979aa0"/>
        </g>
        <rect id="Rectangle_17725" data-name="Rectangle 17725" width="6.117" height="11.622" rx="3.059" transform="translate(35.585 36.054)" fill="#979aa0"/>
      </g>
    </g>
  </g>
</svg>
