<svg id="svgexport-17_59_" data-name="svgexport-17 (59)" xmlns="http://www.w3.org/2000/svg" xmlns:xlink="http://www.w3.org/1999/xlink" width="18.77" height="18.77" viewBox="0 0 18.77 18.77">
  <defs>
    <clipPath id="clip-path">
      <path id="Path_16363" data-name="Path 16363" d="M0-682.665H18.77v18.77H0Z" transform="translate(0 682.665)" fill="#ff5929"/>
    </clipPath>
  </defs>
  <g id="Group_13669" data-name="Group 13669" clip-path="url(#clip-path)">
    <path id="Path_16357" data-name="Path 16357" d="M-89.883-18.057l-2.541,3.679,2.361,1.63a.38.38,0,0,0,.573-.092c1.647-2.385,1.489-1.845,1.508-4.734A1.015,1.015,0,0,0-89.883-18.057Z" transform="translate(96.287 26.963)" fill="none" stroke="#ff5929" stroke-linecap="round" stroke-linejoin="round" stroke-width="1"/>
    <path id="Path_16358" data-name="Path 16358" d="M-61.886-475.177l-1.75-1.208,4.271-6.185a1.1,1.1,0,0,1,.3-.3l6.344-4.178a1.106,1.106,0,0,1,.341-.166l4.828-1.4.617,2.129-4.669,1.356-1.172.772a6.844,6.844,0,0,0,.07,3.66c.224.837-.178,1.281-.664,1.985l-2.885,4.177a1.431,1.431,0,0,1-1.938.354c-.89-.567-2.034-1.388-2.9-1.987l-2.544,3.683" transform="translate(64.002 489.931)" fill="none" stroke="#ff5929" stroke-linecap="round" stroke-linejoin="round" stroke-width="1"/>
    <path id="Path_16359" data-name="Path 16359" d="M-40.421-61.382l-1.143-1.735" transform="translate(51.652 66.959)" fill="none" stroke="#ff5929" stroke-linecap="round" stroke-linejoin="round" stroke-width="1"/>
    <path id="Path_16360" data-name="Path 16360" d="M0-157.478l3.075-4.452" transform="translate(5.142 170.927)" fill="none" stroke="#ff5929" stroke-linecap="round" stroke-linejoin="round" stroke-width="1"/>
    <path id="Path_16361" data-name="Path 16361" d="M-120.787-35.515l-.437-.663a.762.762,0,0,0-1.052-.217l-1.585,1.044a.762.762,0,0,0-.217,1.052l.437.663" transform="translate(129.659 39.807)" fill="none" stroke="#ff5929" stroke-linecap="round" stroke-linejoin="round" stroke-width="1"/>
    <path id="Path_16362" data-name="Path 16362" d="M-51.469,0a2.927,2.927,0,0,0-1.455,2.2,1.475,1.475,0,0,0,1.455,1.467A1.475,1.475,0,0,0-50.014,2.2,2.927,2.927,0,0,0-51.469,0Z" transform="translate(68.417 5.64)" fill="none" stroke="#ff5929" stroke-linecap="round" stroke-linejoin="round" stroke-width="1"/>
  </g>
</svg>
