<svg xmlns="http://www.w3.org/2000/svg" width="106.148" height="101.107" viewBox="0 0 106.148 101.107">
  <g id="Group_14222" data-name="Group 14222" transform="translate(-802.632 -102.165)">
    <g id="Background_Complete" data-name="Background Complete" transform="translate(863.426 119.731)">
      <g id="Group_14145" data-name="Group 14145" transform="translate(11.523 -2.855)">
        <rect id="Rectangle_17752" data-name="Rectangle 17752" width="6.328" height="25.279" fill="#ff5929"/>
        <rect id="Rectangle_17753" data-name="Rectangle 17753" width="6.328" height="19.765" transform="translate(9.307 5.514)" fill="#ff5929"/>
        <rect id="Rectangle_17754" data-name="Rectangle 17754" width="6.328" height="15.25" transform="translate(18.756 10.029)" fill="#ff5929"/>
        <rect id="Rectangle_17755" data-name="Rectangle 17755" width="6.328" height="9.056" transform="translate(27.503 16.223)" fill="#ff5929"/>
      </g>
      <g id="Group_14149" data-name="Group 14149" transform="translate(0 45.147)">
        <g id="Group_14148" data-name="Group 14148">
          <path id="Path_18524" data-name="Path 18524" d="M957.789,233.856a19.425,19.425,0,0,0-27.308.925,19.145,19.145,0,0,0,.93,27.144A19.426,19.426,0,0,0,958.719,261,19.146,19.146,0,0,0,957.789,233.856Zm-6.438,20.3a9.289,9.289,0,0,1-13.057.442,9.154,9.154,0,0,1-.445-12.979,9.289,9.289,0,0,1,13.058-.442A9.155,9.155,0,0,1,951.351,254.159Z" transform="translate(-925.287 -228.694)" fill="#d5e1f1"/>
          <g id="Group_14146" data-name="Group 14146" transform="translate(0 0)">
            <path id="Path_18525" data-name="Path 18525" d="M930.48,234.781a19.426,19.426,0,0,1,27.309-.925l-6.883,7.324a9.289,9.289,0,0,0-13.057.442,9.154,9.154,0,0,0,.445,12.979l-6.883,7.324A19.145,19.145,0,0,1,930.48,234.781Z" transform="translate(-925.287 -228.694)" fill="#ebebeb"/>
          </g>
          <g id="Group_14147" data-name="Group 14147" transform="translate(23.807 2.023)">
            <path id="Path_18526" data-name="Path 18526" d="M981.226,232.776c9.537,8.855,10.679,23.251,1.769,32.731l-9.675-8.38c4.26-4.533,5.185-10.585.626-14.819Z" transform="translate(-973.32 -232.776)" fill="#ff5929"/>
          </g>
        </g>
      </g>
    </g>
    <g id="Screens" transform="translate(802.632 102.165)">
      <g id="Group_14221" data-name="Group 14221">
        <g id="Group_14155" data-name="Group 14155">
          <g id="Group_14151" data-name="Group 14151" transform="translate(0.129 0.129)">
            <g id="Group_14150" data-name="Group 14150">
              <rect id="Rectangle_17756" data-name="Rectangle 17756" width="76.152" height="86.91" fill="#fafafa"/>
            </g>
          </g>
          <g id="Group_14154" data-name="Group 14154">
            <g id="Group_14153" data-name="Group 14153">
              <g id="Group_14152" data-name="Group 14152">
                <path id="Path_18527" data-name="Path 18527" d="M878.913,189.2s0-.141-.007-.412,0-.677-.006-1.207c0-1.066-.007-2.64-.013-4.69-.007-4.1-.017-10.106-.03-17.731-.014-15.238-.034-36.952-.057-62.869l.114.114-76.144.015h-.008l.129-.129c-.007,32.042-.014,61.922-.02,86.91l-.109-.109,55.238.056,15.442.029,4.069.012c.921,0,1.4.012,1.4.012s-.465.008-1.38.012l-4.048.012-15.417.028-55.307.056h-.109v-.11c-.006-24.987-.012-54.867-.02-86.91v-.129h.137l76.144.015h.114v.114c-.024,25.948-.044,47.686-.057,62.942-.013,7.614-.023,13.61-.03,17.706-.006,2.04-.01,3.607-.013,4.668l-.006,1.195C878.917,189.072,878.913,189.2,878.913,189.2Z" transform="translate(-802.632 -102.165)" fill="#263238"/>
              </g>
            </g>
          </g>
        </g>
        <g id="Group_14208" data-name="Group 14208" transform="translate(6.221 7.078)">
          <g id="Group_14157" data-name="Group 14157">
            <g id="Group_14156" data-name="Group 14156">
              <rect id="Rectangle_17757" data-name="Rectangle 17757" width="61.691" height="49.488" rx="3" fill="#ff5929"/>
            </g>
          </g>
          <g id="Group_14207" data-name="Group 14207" transform="translate(4.311 6.274)">
            <g id="Group_14197" data-name="Group 14197">
              <g id="Group_14159" data-name="Group 14159" transform="translate(0 34.416)">
                <g id="Group_14158" data-name="Group 14158">
                  <rect id="Rectangle_17758" data-name="Rectangle 17758" width="2.025" height="0.583" fill="#263238"/>
                </g>
              </g>
              <g id="Group_14161" data-name="Group 14161" transform="translate(4.58 37.535)">
                <g id="Group_14160" data-name="Group 14160">
                  <rect id="Rectangle_17759" data-name="Rectangle 17759" width="2.589" height="0.583" fill="#263238"/>
                </g>
              </g>
              <g id="Group_14163" data-name="Group 14163" transform="translate(13.594 37.535)">
                <g id="Group_14162" data-name="Group 14162">
                  <rect id="Rectangle_17760" data-name="Rectangle 17760" width="2.589" height="0.583" fill="#263238"/>
                </g>
              </g>
              <g id="Group_14165" data-name="Group 14165" transform="translate(22.607 37.535)">
                <g id="Group_14164" data-name="Group 14164">
                  <rect id="Rectangle_17761" data-name="Rectangle 17761" width="2.589" height="0.583" fill="#263238"/>
                </g>
              </g>
              <g id="Group_14167" data-name="Group 14167" transform="translate(31.621 37.535)">
                <g id="Group_14166" data-name="Group 14166">
                  <rect id="Rectangle_17762" data-name="Rectangle 17762" width="2.589" height="0.583" fill="#263238"/>
                </g>
              </g>
              <g id="Group_14169" data-name="Group 14169" transform="translate(40.634 37.535)">
                <g id="Group_14168" data-name="Group 14168">
                  <rect id="Rectangle_17763" data-name="Rectangle 17763" width="2.589" height="0.583" fill="#263238"/>
                </g>
              </g>
              <g id="Group_14171" data-name="Group 14171" transform="translate(49.648 37.535)">
                <g id="Group_14170" data-name="Group 14170">
                  <rect id="Rectangle_17764" data-name="Rectangle 17764" width="2.589" height="0.583" fill="#263238"/>
                </g>
              </g>
              <g id="Group_14173" data-name="Group 14173" transform="translate(0 26.623)">
                <g id="Group_14172" data-name="Group 14172">
                  <rect id="Rectangle_17765" data-name="Rectangle 17765" width="2.025" height="0.583" fill="#263238"/>
                </g>
              </g>
              <g id="Group_14175" data-name="Group 14175" transform="translate(0 11.958)">
                <g id="Group_14174" data-name="Group 14174">
                  <rect id="Rectangle_17766" data-name="Rectangle 17766" width="2.025" height="0.583" fill="#263238"/>
                </g>
              </g>
              <g id="Group_14177" data-name="Group 14177" transform="translate(0 4.587)">
                <g id="Group_14176" data-name="Group 14176">
                  <rect id="Rectangle_17767" data-name="Rectangle 17767" width="2.025" height="0.583" fill="#263238"/>
                </g>
              </g>
              <g id="Group_14179" data-name="Group 14179" transform="translate(0.103 19.291)">
                <g id="Group_14178" data-name="Group 14178">
                  <rect id="Rectangle_17768" data-name="Rectangle 17768" width="2.025" height="0.583" fill="#263238"/>
                </g>
              </g>
              <g id="Group_14182" data-name="Group 14182" transform="translate(2.953)">
                <g id="Group_14181" data-name="Group 14181">
                  <g id="Group_14180" data-name="Group 14180">
                    <path id="Path_18528" data-name="Path 18528" d="M879.052,164.1a1.35,1.35,0,0,1-.217.013l-.638.012-2.449.024-9.01.041-29.725.038H829.84V164.1c.017-9.937.032-18.682.044-24.957.016-3.122.029-5.629.038-7.37.01-.854.017-1.519.022-1.984,0-.217.009-.387.012-.514a.982.982,0,0,1,.011-.174.963.963,0,0,1,.012.174c0,.127.007.3.012.514.005.465.012,1.13.022,1.984.009,1.741.022,4.248.038,7.37.011,6.275.026,15.021.044,24.957l-.127-.127h7.045l29.725.038,9.01.041,2.449.024.638.013A1.358,1.358,0,0,1,879.052,164.1Z" transform="translate(-829.84 -129.103)" fill="#263238"/>
                  </g>
                </g>
              </g>
              <g id="Group_14185" data-name="Group 14185" transform="translate(5.039 19.453)">
                <g id="Group_14184" data-name="Group 14184">
                  <g id="Group_14183" data-name="Group 14183">
                    <path id="Path_18529" data-name="Path 18529" d="M881.744,168.48c0,.071-10.678.129-23.847.129s-23.849-.058-23.849-.129,10.675-.129,23.849-.129S881.744,168.408,881.744,168.48Z" transform="translate(-834.049 -168.351)" fill="#263238"/>
                  </g>
                </g>
              </g>
              <g id="Group_14188" data-name="Group 14188" transform="translate(5.039 12.12)">
                <g id="Group_14187" data-name="Group 14187">
                  <g id="Group_14186" data-name="Group 14186">
                    <path id="Path_18530" data-name="Path 18530" d="M881.744,153.685c0,.071-10.678.129-23.847.129s-23.849-.058-23.849-.129,10.675-.129,23.849-.129S881.744,153.614,881.744,153.685Z" transform="translate(-834.049 -153.556)" fill="#263238"/>
                  </g>
                </g>
              </g>
              <g id="Group_14191" data-name="Group 14191" transform="translate(5.039 4.75)">
                <g id="Group_14190" data-name="Group 14190">
                  <g id="Group_14189" data-name="Group 14189">
                    <path id="Path_18531" data-name="Path 18531" d="M881.744,138.815c0,.071-10.678.129-23.847.129s-23.849-.057-23.849-.129,10.675-.129,23.849-.129S881.744,138.744,881.744,138.815Z" transform="translate(-834.049 -138.686)" fill="#263238"/>
                  </g>
                </g>
              </g>
              <g id="Group_14194" data-name="Group 14194" transform="translate(5.039 26.786)">
                <g id="Group_14193" data-name="Group 14193">
                  <g id="Group_14192" data-name="Group 14192">
                    <path id="Path_18532" data-name="Path 18532" d="M881.744,183.275c0,.071-10.678.129-23.847.129s-23.849-.057-23.849-.129,10.675-.129,23.849-.129S881.744,183.2,881.744,183.275Z" transform="translate(-834.049 -183.146)" fill="#263238"/>
                  </g>
                </g>
              </g>
              <g id="Group_14196" data-name="Group 14196" transform="translate(5.531 0.541)">
                <g id="Group_14195" data-name="Group 14195">
                  <path id="Path_18533" data-name="Path 18533" d="M835.041,163.074v-6.506l4.055-6.3,2.752,2.111,5.648-8.773,3.331,2.346,4.634-8.094,3.766,3.068,5.648-10.737,4.225,8.335,1.858,3.665,4.924-6,5.793-1.657v28.542Z" transform="translate(-835.041 -130.194)" fill="#3275b9"/>
                </g>
              </g>
            </g>
            <g id="Group_14200" data-name="Group 14200" transform="translate(5.53 2.497)">
              <g id="Group_14199" data-name="Group 14199">
                <g id="Group_14198" data-name="Group 14198">
                  <path id="Path_18534" data-name="Path 18534" d="M882.244,134.213a.379.379,0,0,1-.1.01l-.3.01-1.176.018-4.445.034.057-.028-4.757,6.231-.03.04h-.051l-11.926.022.106-.06-5.013,8.349-4.924,8.181-.1.161-.111-.152-6.456-8.886.173-.005-5.9,9.175-1.65,2.535-.439.66c-.1.148-.16.22-.16.22s.041-.083.133-.237l.413-.677,1.6-2.565,5.827-9.224.082-.13.092.125,6.487,8.864-.207.009,4.916-8.187,5.021-8.343.036-.06h.07l11.926.022-.081.04,4.8-6.194.022-.028h.035l4.445.033,1.176.019.3.009A.436.436,0,0,1,882.244,134.213Z" transform="translate(-835.04 -134.141)" fill="#e8505b"/>
                </g>
              </g>
            </g>
            <g id="Group_14202" data-name="Group 14202" transform="translate(14.634 18.081)">
              <g id="Group_14201" data-name="Group 14201">
                <path id="Path_18535" data-name="Path 18535" d="M854.321,166.023a.458.458,0,1,1-.458-.441A.45.45,0,0,1,854.321,166.023Z" transform="translate(-853.406 -165.582)" fill="#e8505b"/>
              </g>
            </g>
            <g id="Group_14204" data-name="Group 14204" transform="translate(28.39 10.262)">
              <g id="Group_14203" data-name="Group 14203">
                <path id="Path_18536" data-name="Path 18536" d="M882.075,150.248a.458.458,0,1,1-.457-.44A.449.449,0,0,1,882.075,150.248Z" transform="translate(-881.16 -149.808)" fill="#e8505b"/>
              </g>
            </g>
            <g id="Group_14206" data-name="Group 14206" transform="translate(39.084 8.341)">
              <g id="Group_14205" data-name="Group 14205">
                <path id="Path_18537" data-name="Path 18537" d="M903.652,146.372a.458.458,0,1,1-.457-.44A.449.449,0,0,1,903.652,146.372Z" transform="translate(-902.737 -145.932)" fill="#e8505b"/>
              </g>
            </g>
          </g>
        </g>
        <g id="Group_14211" data-name="Group 14211" transform="translate(6.985 63.794)">
          <g id="Group_14210" data-name="Group 14210">
            <g id="Group_14209" data-name="Group 14209">
              <path id="Path_18538" data-name="Path 18538" d="M874.872,231c0,.071-13.018.129-29.072.129s-29.075-.058-29.075-.129,13.015-.129,29.075-.129S874.872,230.931,874.872,231Z" transform="translate(-816.725 -230.874)" fill="#263238"/>
            </g>
          </g>
        </g>
        <g id="Group_14214" data-name="Group 14214" transform="translate(6.985 66.938)">
          <g id="Group_14213" data-name="Group 14213">
            <g id="Group_14212" data-name="Group 14212">
              <path id="Path_18539" data-name="Path 18539" d="M874.872,237.345c0,.071-13.018.129-29.072.129s-29.075-.058-29.075-.129,13.015-.129,29.075-.129S874.872,237.274,874.872,237.345Z" transform="translate(-816.725 -237.216)" fill="#263238"/>
            </g>
          </g>
        </g>
        <g id="Group_14217" data-name="Group 14217" transform="translate(6.985 70.081)">
          <g id="Group_14216" data-name="Group 14216">
            <g id="Group_14215" data-name="Group 14215">
              <path id="Path_18540" data-name="Path 18540" d="M874.872,243.687c0,.071-13.018.129-29.072.129s-29.075-.057-29.075-.129,13.015-.129,29.075-.129S874.872,243.616,874.872,243.687Z" transform="translate(-816.725 -243.558)" fill="#263238"/>
            </g>
          </g>
        </g>
        <g id="Group_14220" data-name="Group 14220" transform="translate(6.985 73.225)">
          <g id="Group_14219" data-name="Group 14219">
            <g id="Group_14218" data-name="Group 14218">
              <path id="Path_18541" data-name="Path 18541" d="M874.872,250.03c0,.071-13.018.129-29.072.129s-29.075-.057-29.075-.129,13.015-.129,29.075-.129S874.872,249.958,874.872,250.03Z" transform="translate(-816.725 -249.901)" fill="#263238"/>
            </g>
          </g>
        </g>
      </g>
    </g>
  </g>
</svg>
