<svg id="svgexport-17_57_" data-name="svgexport-17 (57)" xmlns="http://www.w3.org/2000/svg" width="16.813" height="16.813" viewBox="0 0 16.813 16.813">
  <path id="Path_16353" data-name="Path 16353" d="M8.406,0a8.406,8.406,0,1,0,8.406,8.406A8.406,8.406,0,0,0,8.406,0Zm0,15.411a7.005,7.005,0,1,1,7.005-7.005A7.005,7.005,0,0,1,8.406,15.411Z" fill="#ff5929"/>
  <path id="Path_16354" data-name="Path 16354" d="M37.6,32a5.6,5.6,0,1,0,5.6,5.6A5.6,5.6,0,0,0,37.6,32Zm0,9.807a4.2,4.2,0,1,1,4.2-4.2A4.2,4.2,0,0,1,37.6,41.807Z" transform="translate(-29.198 -29.198)" fill="#ff5929"/>
  <path id="Path_16355" data-name="Path 16355" d="M88,64h1.4v3.5H88Z" transform="translate(-80.294 -58.396)" fill="#ff5929"/>
  <path id="Path_16356" data-name="Path 16356" d="M62.534,75.994l-1.213.7a2.1,2.1,0,1,1-3.642,0l-1.213-.7a3.5,3.5,0,1,0,6.067,0Z" transform="translate(-51.094 -69.34)" fill="#ff5929"/>
</svg>
