<svg xmlns="http://www.w3.org/2000/svg" width="27.101" height="27.102" viewBox="0 0 27.101 27.102">
  <g id="svgexport-17_81_" data-name="svgexport-17 (81)" transform="translate(-0.001)">
    <path id="Path_18566" data-name="Path 18566" d="M26.14,3.739a1.059,1.059,0,0,0-1.15.958l-.14,1.539A13.363,13.363,0,0,0,1.612,7.35,1.059,1.059,0,0,0,3.5,8.313a11.254,11.254,0,0,1,19.58-.934L21.568,6.3a1.059,1.059,0,1,0-1.231,1.723l4.577,3.269a1.059,1.059,0,0,0,1.67-.765L27.1,4.889a1.059,1.059,0,0,0-.958-1.15ZM25.031,18.327a1.059,1.059,0,0,0-1.424.461,11.254,11.254,0,0,1-19.58.934L5.536,20.8a1.059,1.059,0,0,0,1.231-1.723L2.189,15.808a1.06,1.06,0,0,0-1.67.765L.006,22.213a1.059,1.059,0,1,0,2.109.192l.14-1.539a13.363,13.363,0,0,0,23.238-1.114A1.059,1.059,0,0,0,25.031,18.327Z" transform="translate(0)" fill="#fff"/>
  </g>
</svg>
