<svg xmlns="http://www.w3.org/2000/svg" width="10.262" height="21.98" viewBox="0 0 10.262 21.98">
  <g id="svgexport-6_6_" data-name="svgexport-6 (6)" transform="translate(0.25 0.25)">
    <path id="Path_16348" data-name="Path 16348" d="M52.828,10.626a.222.222,0,0,0-.222.222v1.406a.222.222,0,0,0,.222.222h8.317a.222.222,0,0,0,.222-.222V10.847a.222.222,0,0,0-.222-.222Zm8.317,2.319H52.828a.691.691,0,0,1-.691-.691V10.848a.691.691,0,0,1,.691-.691h8.317a.691.691,0,0,1,.691.691v1.406a.691.691,0,0,1-.691.691Zm-4.159,5.216a2.806,2.806,0,0,1,2.67,1.248.216.216,0,0,0,.207.142h1.281a.222.222,0,0,0,.222-.222V15.6a.222.222,0,0,0-.222-.222H52.828a.222.222,0,0,0-.222.222v3.73a.222.222,0,0,0,.222.222h1.281a.215.215,0,0,0,.207-.142A2.807,2.807,0,0,1,56.986,18.161Zm4.159,1.859H59.864a.686.686,0,0,1-.644-.443c-.209-.54-1.169-.948-2.233-.948s-2.024.407-2.233.948a.686.686,0,0,1-.644.443H52.828a.692.692,0,0,1-.691-.691V15.6a.691.691,0,0,1,.691-.691h8.317a.692.692,0,0,1,.691.691v3.73a.692.692,0,0,1-.691.691Z" transform="translate(-52.105 -10.157)" fill="#166673" stroke="#ff5929" stroke-width="0.5" fill-rule="evenodd"/>
    <path id="Path_16349" data-name="Path 16349" d="M60,29.585a.235.235,0,0,1-.234-.234V26.916a.234.234,0,1,1,.469,0V29.35a.235.235,0,0,1-.234.235Zm7.09,0a.235.235,0,0,1-.234-.234V26.916a.235.235,0,0,1,.469,0V29.35a.235.235,0,0,1-.234.235Z" transform="translate(-58.66 -24.363)" fill="#166673" stroke="#ff5929" stroke-width="0.5" fill-rule="evenodd"/>
    <path id="Path_16350" data-name="Path 16350" d="M60.337,35.825h-7.09a.234.234,0,1,1,0-.469h7.09a.234.234,0,1,1,0,.469ZM52.38,51.339h1.891a.233.233,0,0,1,.205.122,2.642,2.642,0,0,0,4.632,0,.233.233,0,0,1,.205-.122H61.2v-2.3H59.313a.234.234,0,0,1-.205-.122,2.642,2.642,0,0,0-4.632,0,.234.234,0,0,1-.205.122H52.38ZM56.792,53.3a3.111,3.111,0,0,1-2.656-1.492H52.145a.235.235,0,0,1-.234-.234V48.808a.234.234,0,0,1,.234-.234h1.99a3.11,3.11,0,0,1,5.313,0h1.99a.234.234,0,0,1,.234.234v2.766a.234.234,0,0,1-.234.234h-1.99A3.111,3.111,0,0,1,56.792,53.3Z" transform="translate(-51.911 -31.82)" fill="#166673" stroke="#ff5929" stroke-width="0.5" fill-rule="evenodd"/>
    <path id="Path_16351" data-name="Path 16351" d="M77.324,77.446a1.061,1.061,0,1,0,1.061,1.061A1.062,1.062,0,0,0,77.324,77.446Zm0,2.591a1.53,1.53,0,1,1,1.53-1.53A1.532,1.532,0,0,1,77.324,80.037ZM76.179,76.1a.234.234,0,0,1-.234-.234v-7.34a.234.234,0,1,1,.469,0v7.34A.235.235,0,0,1,76.179,76.1Zm2.29,0a.235.235,0,0,1-.235-.234v-7.34a.235.235,0,1,1,.469,0v7.34A.235.235,0,0,1,78.469,76.1Z" transform="translate(-72.443 -60.138)" fill="#166673" stroke="#ff5929" stroke-width="0.5" fill-rule="evenodd"/>
    <path id="Path_16352" data-name="Path 16352" d="M55.546,63.7H52.194a.235.235,0,0,1,0-.469h3.351a.234.234,0,0,1,0,.469Zm5.942,0H58.137a.235.235,0,0,1,0-.469h3.351a.235.235,0,0,1,0,.469Zm-4.647-1.3a.235.235,0,0,1-.234-.234v-1.58a.234.234,0,1,1,.469,0v1.58A.235.235,0,0,1,56.841,62.4Zm0,4.171a.235.235,0,0,1-.234-.234v-1.58a.234.234,0,0,1,.469,0v1.58A.235.235,0,0,1,56.841,66.571Zm0-15.309a.442.442,0,1,0,.442.442.443.443,0,0,0-.442-.442Zm0,1.353a.911.911,0,1,1,.911-.91.912.912,0,0,1-.911.91Z" transform="translate(-51.96 -45.091)" fill="#166673" stroke="#ff5929" stroke-width="0.5" fill-rule="evenodd"/>
  </g>
</svg>
